<svg id="visual" viewBox="0 0 2048 2732" width="2048" height="2732" xmlns="http://www.w3.org/2000/svg" xmlns:xlink="http://www.w3.org/1999/xlink" version="1.1"><rect x="0" y="0" width="2048" height="2732" fill="#ededed"></rect><path d="M0 1935L16.3 1894.7C32.7 1854.3 65.3 1773.7 97.8 1752.3C130.3 1731 162.7 1769 195.2 1882.2C227.7 1995.3 260.3 2183.7 292.8 2057.8C325.3 1932 357.7 1492 390.2 1486.5C422.7 1481 455.3 1910 487.8 1939.2C520.3 1968.3 552.7 1597.7 585.2 1392.5C617.7 1187.3 650.3 1147.7 682.8 1105C715.3 1062.3 747.7 1016.7 780.2 1164.2C812.7 1311.7 845.3 1652.3 877.8 1704.8C910.3 1757.3 942.7 1521.7 975.2 1385.7C1007.7 1249.7 1040.3 1213.3 1072.8 1233C1105.3 1252.7 1137.7 1328.3 1170.2 1535.2C1202.7 1742 1235.3 2080 1267.8 2281.8C1300.3 2483.7 1332.7 2549.3 1365.2 2315.8C1397.7 2082.3 1430.3 1549.7 1462.8 1416.5C1495.3 1283.3 1527.7 1549.7 1560.2 1510.2C1592.7 1470.7 1625.3 1125.3 1657.8 1149.3C1690.3 1173.3 1722.7 1566.7 1755.2 1854.3C1787.7 2142 1820.3 2324 1852.8 2364.8C1885.3 2405.7 1917.7 2305.3 1950.2 2181.8C1982.7 2058.3 2015.3 1911.7 2031.7 1838.3L2048 1765L2048 2733L2031.7 2733C2015.3 2733 1982.7 2733 1950.2 2733C1917.7 2733 1885.3 2733 1852.8 2733C1820.3 2733 1787.7 2733 1755.2 2733C1722.7 2733 1690.3 2733 1657.8 2733C1625.3 2733 1592.7 2733 1560.2 2733C1527.7 2733 1495.3 2733 1462.8 2733C1430.3 2733 1397.7 2733 1365.2 2733C1332.7 2733 1300.3 2733 1267.8 2733C1235.3 2733 1202.7 2733 1170.2 2733C1137.7 2733 1105.3 2733 1072.8 2733C1040.3 2733 1007.7 2733 975.2 2733C942.7 2733 910.3 2733 877.8 2733C845.3 2733 812.7 2733 780.2 2733C747.7 2733 715.3 2733 682.8 2733C650.3 2733 617.7 2733 585.2 2733C552.7 2733 520.3 2733 487.8 2733C455.3 2733 422.7 2733 390.2 2733C357.7 2733 325.3 2733 292.8 2733C260.3 2733 227.7 2733 195.2 2733C162.7 2733 130.3 2733 97.8 2733C65.3 2733 32.7 2733 16.3 2733L0 2733Z" fill="#fae869"></path><path d="M0 1320L16.3 1305C32.7 1290 65.3 1260 97.8 1232.2C130.3 1204.3 162.7 1178.7 195.2 1375.3C227.7 1572 260.3 1991 292.8 2063C325.3 2135 357.7 1860 390.2 1721.7C422.7 1583.3 455.3 1581.7 487.8 1537C520.3 1492.3 552.7 1404.7 585.2 1410.8C617.7 1417 650.3 1517 682.8 1508.7C715.3 1500.3 747.7 1383.7 780.2 1440C812.7 1496.3 845.3 1725.7 877.8 1677.5C910.3 1629.3 942.7 1303.7 975.2 1248.2C1007.7 1192.7 1040.3 1407.3 1072.8 1474.7C1105.3 1542 1137.7 1462 1170.2 1401.7C1202.7 1341.3 1235.3 1300.7 1267.8 1389.3C1300.3 1478 1332.7 1696 1365.2 1918.3C1397.7 2140.7 1430.3 2367.3 1462.8 2357.5C1495.3 2347.7 1527.7 2101.3 1560.2 1992.8C1592.7 1884.3 1625.3 1913.7 1657.8 1991.7C1690.3 2069.7 1722.7 2196.3 1755.2 2160.5C1787.7 2124.7 1820.3 1926.3 1852.8 1934.5C1885.3 1942.7 1917.7 2157.3 1950.2 2055.8C1982.7 1954.3 2015.3 1536.7 2031.7 1327.8L2048 1119L2048 2733L2031.7 2733C2015.3 2733 1982.7 2733 1950.2 2733C1917.7 2733 1885.3 2733 1852.8 2733C1820.3 2733 1787.7 2733 1755.2 2733C1722.7 2733 1690.3 2733 1657.8 2733C1625.3 2733 1592.7 2733 1560.2 2733C1527.7 2733 1495.3 2733 1462.8 2733C1430.3 2733 1397.7 2733 1365.2 2733C1332.7 2733 1300.3 2733 1267.8 2733C1235.3 2733 1202.7 2733 1170.2 2733C1137.7 2733 1105.3 2733 1072.8 2733C1040.3 2733 1007.7 2733 975.2 2733C942.7 2733 910.3 2733 877.8 2733C845.3 2733 812.7 2733 780.2 2733C747.7 2733 715.3 2733 682.8 2733C650.3 2733 617.7 2733 585.2 2733C552.7 2733 520.3 2733 487.8 2733C455.3 2733 422.7 2733 390.2 2733C357.7 2733 325.3 2733 292.8 2733C260.3 2733 227.7 2733 195.2 2733C162.7 2733 130.3 2733 97.8 2733C65.3 2733 32.7 2733 16.3 2733L0 2733Z" fill="#fdd85c"></path><path d="M0 2316L16.3 2363.3C32.7 2410.7 65.3 2505.3 97.8 2366.2C130.3 2227 162.7 1854 195.2 1806.2C227.7 1758.3 260.3 2035.7 292.8 2175.5C325.3 2315.3 357.7 2317.7 390.2 2190.7C422.7 2063.7 455.3 1807.3 487.8 1618.7C520.3 1430 552.7 1309 585.2 1424C617.7 1539 650.3 1890 682.8 1992.8C715.3 2095.7 747.7 1950.3 780.2 1795.8C812.7 1641.3 845.3 1477.7 877.8 1415C910.3 1352.3 942.7 1390.7 975.2 1563.3C1007.7 1736 1040.3 2043 1072.8 2023.8C1105.3 2004.7 1137.7 1659.3 1170.2 1620.5C1202.7 1581.7 1235.3 1849.3 1267.8 2054.2C1300.3 2259 1332.7 2401 1365.2 2358.5C1397.7 2316 1430.3 2089 1462.8 1869.2C1495.3 1649.3 1527.7 1436.7 1560.2 1390.5C1592.7 1344.3 1625.3 1464.7 1657.8 1486.5C1690.3 1508.3 1722.7 1431.7 1755.2 1424.2C1787.7 1416.7 1820.3 1478.3 1852.8 1465C1885.3 1451.7 1917.7 1363.3 1950.2 1326.7C1982.7 1290 2015.3 1305 2031.7 1312.5L2048 1320L2048 2733L2031.7 2733C2015.3 2733 1982.7 2733 1950.2 2733C1917.7 2733 1885.3 2733 1852.8 2733C1820.3 2733 1787.7 2733 1755.2 2733C1722.7 2733 1690.3 2733 1657.8 2733C1625.3 2733 1592.7 2733 1560.2 2733C1527.7 2733 1495.3 2733 1462.8 2733C1430.3 2733 1397.7 2733 1365.2 2733C1332.7 2733 1300.3 2733 1267.8 2733C1235.3 2733 1202.7 2733 1170.2 2733C1137.7 2733 1105.3 2733 1072.8 2733C1040.3 2733 1007.7 2733 975.2 2733C942.7 2733 910.3 2733 877.8 2733C845.3 2733 812.7 2733 780.2 2733C747.7 2733 715.3 2733 682.8 2733C650.3 2733 617.7 2733 585.2 2733C552.7 2733 520.3 2733 487.8 2733C455.3 2733 422.7 2733 390.2 2733C357.7 2733 325.3 2733 292.8 2733C260.3 2733 227.7 2733 195.2 2733C162.7 2733 130.3 2733 97.8 2733C65.3 2733 32.7 2733 16.3 2733L0 2733Z" fill="#fec752"></path><path d="M0 1509L16.3 1580.8C32.7 1652.7 65.3 1796.3 97.8 1810.5C130.3 1824.7 162.7 1709.3 195.2 1678.8C227.7 1648.3 260.3 1702.7 292.8 1831C325.3 1959.3 357.7 2161.7 390.2 2240.8C422.7 2320 455.3 2276 487.8 2236.2C520.3 2196.3 552.7 2160.7 585.2 2028.2C617.7 1895.7 650.3 1666.3 682.8 1649.5C715.3 1632.7 747.7 1828.3 780.2 1906.2C812.7 1984 845.3 1944 877.8 2010.5C910.3 2077 942.7 2250 975.2 2277.3C1007.7 2304.7 1040.3 2186.3 1072.8 2088.8C1105.3 1991.3 1137.7 1914.7 1170.2 1907C1202.7 1899.3 1235.3 1960.7 1267.8 2033.8C1300.3 2107 1332.7 2192 1365.2 2283.2C1397.7 2374.3 1430.3 2471.7 1462.8 2342C1495.3 2212.3 1527.7 1855.7 1560.2 1755C1592.7 1654.3 1625.3 1809.7 1657.8 1827.5C1690.3 1845.3 1722.7 1725.7 1755.2 1738.5C1787.7 1751.3 1820.3 1896.7 1852.8 2000.2C1885.3 2103.7 1917.7 2165.3 1950.2 2077.7C1982.7 1990 2015.3 1753 2031.7 1634.5L2048 1516L2048 2733L2031.7 2733C2015.3 2733 1982.7 2733 1950.2 2733C1917.7 2733 1885.3 2733 1852.8 2733C1820.3 2733 1787.7 2733 1755.2 2733C1722.7 2733 1690.3 2733 1657.8 2733C1625.3 2733 1592.7 2733 1560.2 2733C1527.7 2733 1495.3 2733 1462.8 2733C1430.3 2733 1397.7 2733 1365.2 2733C1332.7 2733 1300.3 2733 1267.8 2733C1235.3 2733 1202.7 2733 1170.2 2733C1137.7 2733 1105.3 2733 1072.8 2733C1040.3 2733 1007.7 2733 975.2 2733C942.7 2733 910.3 2733 877.8 2733C845.3 2733 812.7 2733 780.2 2733C747.7 2733 715.3 2733 682.8 2733C650.3 2733 617.7 2733 585.2 2733C552.7 2733 520.3 2733 487.8 2733C455.3 2733 422.7 2733 390.2 2733C357.7 2733 325.3 2733 292.8 2733C260.3 2733 227.7 2733 195.2 2733C162.7 2733 130.3 2733 97.8 2733C65.3 2733 32.7 2733 16.3 2733L0 2733Z" fill="#ffb64b"></path><path d="M0 1927L16.3 1935.5C32.7 1944 65.3 1961 97.8 2019.5C130.3 2078 162.7 2178 195.2 2190C227.7 2202 260.3 2126 292.8 2044.2C325.3 1962.3 357.7 1874.7 390.2 1917.2C422.7 1959.7 455.3 2132.3 487.8 2264.3C520.3 2396.3 552.7 2487.7 585.2 2467.3C617.7 2447 650.3 2315 682.8 2215.8C715.3 2116.7 747.7 2050.3 780.2 2120.2C812.7 2190 845.3 2396 877.8 2480C910.3 2564 942.7 2526 975.2 2385.5C1007.7 2245 1040.3 2002 1072.8 1981.2C1105.3 1960.3 1137.7 2161.7 1170.2 2286.7C1202.7 2411.7 1235.3 2460.3 1267.8 2359.2C1300.3 2258 1332.7 2007 1365.2 1981.2C1397.7 1955.3 1430.3 2154.7 1462.8 2181.3C1495.3 2208 1527.7 2062 1560.2 1966.5C1592.7 1871 1625.3 1826 1657.8 1809.8C1690.3 1793.7 1722.7 1806.3 1755.2 1922C1787.7 2037.7 1820.3 2256.3 1852.8 2395.8C1885.3 2535.3 1917.7 2595.7 1950.2 2478C1982.7 2360.3 2015.3 2064.7 2031.7 1916.8L2048 1769L2048 2733L2031.7 2733C2015.3 2733 1982.7 2733 1950.2 2733C1917.7 2733 1885.3 2733 1852.8 2733C1820.3 2733 1787.7 2733 1755.2 2733C1722.7 2733 1690.3 2733 1657.8 2733C1625.3 2733 1592.7 2733 1560.2 2733C1527.7 2733 1495.3 2733 1462.8 2733C1430.3 2733 1397.7 2733 1365.2 2733C1332.7 2733 1300.3 2733 1267.8 2733C1235.3 2733 1202.7 2733 1170.2 2733C1137.7 2733 1105.3 2733 1072.8 2733C1040.3 2733 1007.7 2733 975.2 2733C942.7 2733 910.3 2733 877.8 2733C845.3 2733 812.7 2733 780.2 2733C747.7 2733 715.3 2733 682.8 2733C650.3 2733 617.7 2733 585.2 2733C552.7 2733 520.3 2733 487.8 2733C455.3 2733 422.7 2733 390.2 2733C357.7 2733 325.3 2733 292.8 2733C260.3 2733 227.7 2733 195.2 2733C162.7 2733 130.3 2733 97.8 2733C65.3 2733 32.7 2733 16.3 2733L0 2733Z" fill="#ffa547"></path><path d="M0 2010L16.3 2071.3C32.7 2132.7 65.3 2255.3 97.8 2353.3C130.3 2451.3 162.7 2524.7 195.2 2471.2C227.7 2417.7 260.3 2237.3 292.8 2205C325.3 2172.7 357.7 2288.3 390.2 2311.5C422.7 2334.7 455.3 2265.3 487.8 2230C520.3 2194.7 552.7 2193.3 585.2 2240.2C617.7 2287 650.3 2382 682.8 2451.8C715.3 2521.7 747.7 2566.3 780.2 2600.7C812.7 2635 845.3 2659 877.8 2559C910.3 2459 942.7 2235 975.2 2135C1007.7 2035 1040.3 2059 1072.8 2092.5C1105.3 2126 1137.7 2169 1170.2 2216.3C1202.7 2263.7 1235.3 2315.3 1267.8 2293.8C1300.3 2272.3 1332.7 2177.7 1365.2 2153.2C1397.7 2128.7 1430.3 2174.3 1462.8 2219C1495.3 2263.7 1527.7 2307.3 1560.2 2279.3C1592.7 2251.3 1625.3 2151.7 1657.8 2148.8C1690.3 2146 1722.7 2240 1755.2 2313.7C1787.7 2387.3 1820.3 2440.7 1852.8 2435.5C1885.3 2430.3 1917.7 2366.7 1950.2 2382.2C1982.7 2397.7 2015.3 2492.3 2031.7 2539.7L2048 2587L2048 2733L2031.7 2733C2015.3 2733 1982.7 2733 1950.2 2733C1917.7 2733 1885.3 2733 1852.8 2733C1820.3 2733 1787.7 2733 1755.2 2733C1722.7 2733 1690.3 2733 1657.8 2733C1625.3 2733 1592.7 2733 1560.2 2733C1527.7 2733 1495.3 2733 1462.8 2733C1430.3 2733 1397.7 2733 1365.2 2733C1332.7 2733 1300.3 2733 1267.8 2733C1235.3 2733 1202.7 2733 1170.2 2733C1137.7 2733 1105.3 2733 1072.8 2733C1040.3 2733 1007.7 2733 975.2 2733C942.7 2733 910.3 2733 877.8 2733C845.3 2733 812.7 2733 780.2 2733C747.7 2733 715.3 2733 682.8 2733C650.3 2733 617.7 2733 585.2 2733C552.7 2733 520.3 2733 487.8 2733C455.3 2733 422.7 2733 390.2 2733C357.7 2733 325.3 2733 292.8 2733C260.3 2733 227.7 2733 195.2 2733C162.7 2733 130.3 2733 97.8 2733C65.3 2733 32.7 2733 16.3 2733L0 2733Z" fill="#ff9446"></path><path d="M0 2546L16.3 2556.5C32.7 2567 65.3 2588 97.8 2571.7C130.3 2555.3 162.7 2501.7 195.2 2475.8C227.7 2450 260.3 2452 292.8 2444.7C325.3 2437.3 357.7 2420.7 390.2 2461.3C422.7 2502 455.3 2600 487.8 2576.7C520.3 2553.3 552.7 2408.7 585.2 2408.5C617.7 2408.3 650.3 2552.7 682.8 2624.5C715.3 2696.3 747.7 2695.7 780.2 2656C812.7 2616.3 845.3 2537.7 877.8 2504.8C910.3 2472 942.7 2485 975.2 2514C1007.7 2543 1040.3 2588 1072.8 2582.8C1105.3 2577.7 1137.7 2522.3 1170.2 2505.3C1202.7 2488.3 1235.3 2509.7 1267.8 2520.5C1300.3 2531.3 1332.7 2531.7 1365.2 2549.2C1397.7 2566.7 1430.3 2601.3 1462.8 2610.2C1495.3 2619 1527.7 2602 1560.2 2548C1592.7 2494 1625.3 2403 1657.8 2374.3C1690.3 2345.7 1722.7 2379.3 1755.2 2421C1787.7 2462.7 1820.3 2512.3 1852.8 2483.3C1885.3 2454.3 1917.7 2346.7 1950.2 2350.3C1982.7 2354 2015.3 2469 2031.7 2526.5L2048 2584L2048 2733L2031.7 2733C2015.3 2733 1982.7 2733 1950.2 2733C1917.7 2733 1885.3 2733 1852.8 2733C1820.3 2733 1787.7 2733 1755.2 2733C1722.7 2733 1690.3 2733 1657.8 2733C1625.3 2733 1592.7 2733 1560.2 2733C1527.7 2733 1495.3 2733 1462.8 2733C1430.3 2733 1397.7 2733 1365.2 2733C1332.7 2733 1300.3 2733 1267.8 2733C1235.3 2733 1202.7 2733 1170.2 2733C1137.7 2733 1105.3 2733 1072.8 2733C1040.3 2733 1007.7 2733 975.2 2733C942.7 2733 910.3 2733 877.8 2733C845.3 2733 812.7 2733 780.2 2733C747.7 2733 715.3 2733 682.8 2733C650.3 2733 617.7 2733 585.2 2733C552.7 2733 520.3 2733 487.8 2733C455.3 2733 422.7 2733 390.2 2733C357.7 2733 325.3 2733 292.8 2733C260.3 2733 227.7 2733 195.2 2733C162.7 2733 130.3 2733 97.8 2733C65.3 2733 32.7 2733 16.3 2733L0 2733Z" fill="#fe8247"></path></svg>