<svg id="visual" viewBox="0 0 2560 1440" width="2560" height="1440" xmlns="http://www.w3.org/2000/svg" xmlns:xlink="http://www.w3.org/1999/xlink" version="1.1"><rect x="0" y="0" width="2560" height="1440" fill="#ededed"></rect><path d="M0 1286L19.3 1286.3C38.7 1286.7 77.3 1287.3 116.2 1289.2C155 1291 194 1294 232.8 1304C271.7 1314 310.3 1331 349 1329.5C387.7 1328 426.3 1308 465.2 1295.7C504 1283.3 543 1278.7 581.8 1269.2C620.7 1259.7 659.3 1245.3 698.2 1251.3C737 1257.3 776 1283.7 814.8 1304.7C853.7 1325.7 892.3 1341.3 931 1352.2C969.7 1363 1008.3 1369 1047.2 1347C1086 1325 1125 1275 1163.8 1266.8C1202.7 1258.7 1241.3 1292.3 1280 1297.7C1318.7 1303 1357.3 1280 1396.2 1283.7C1435 1287.3 1474 1317.7 1512.8 1313.8C1551.7 1310 1590.3 1272 1629 1254C1667.7 1236 1706.3 1238 1745.2 1264.7C1784 1291.3 1823 1342.7 1861.8 1357.7C1900.7 1372.7 1939.3 1351.3 1978.2 1342.7C2017 1334 2056 1338 2094.8 1348.5C2133.7 1359 2172.3 1376 2211 1369.3C2249.7 1362.7 2288.3 1332.3 2327.2 1330C2366 1327.7 2405 1353.3 2443.8 1359C2482.7 1364.7 2521.3 1350.3 2540.7 1343.2L2560 1336L2560 1441L2540.7 1441C2521.3 1441 2482.7 1441 2443.8 1441C2405 1441 2366 1441 2327.2 1441C2288.3 1441 2249.7 1441 2211 1441C2172.3 1441 2133.7 1441 2094.8 1441C2056 1441 2017 1441 1978.2 1441C1939.3 1441 1900.7 1441 1861.8 1441C1823 1441 1784 1441 1745.2 1441C1706.3 1441 1667.7 1441 1629 1441C1590.3 1441 1551.7 1441 1512.8 1441C1474 1441 1435 1441 1396.2 1441C1357.3 1441 1318.7 1441 1280 1441C1241.3 1441 1202.7 1441 1163.8 1441C1125 1441 1086 1441 1047.2 1441C1008.3 1441 969.7 1441 931 1441C892.3 1441 853.7 1441 814.8 1441C776 1441 737 1441 698.2 1441C659.3 1441 620.7 1441 581.8 1441C543 1441 504 1441 465.2 1441C426.3 1441 387.7 1441 349 1441C310.3 1441 271.7 1441 232.8 1441C194 1441 155 1441 116.2 1441C77.3 1441 38.7 1441 19.3 1441L0 1441Z" fill="#fae869"></path><path d="M0 1316L19.3 1320.5C38.7 1325 77.3 1334 116.2 1328C155 1322 194 1301 232.8 1301.2C271.7 1301.3 310.3 1322.7 349 1342.8C387.7 1363 426.3 1382 465.2 1370.7C504 1359.3 543 1317.7 581.8 1306.8C620.7 1296 659.3 1316 698.2 1312.2C737 1308.3 776 1280.7 814.8 1276.7C853.7 1272.7 892.3 1292.3 931 1308.2C969.7 1324 1008.3 1336 1047.2 1334.5C1086 1333 1125 1318 1163.8 1311C1202.7 1304 1241.3 1305 1280 1299.7C1318.7 1294.3 1357.3 1282.7 1396.2 1292.2C1435 1301.7 1474 1332.3 1512.8 1350.5C1551.7 1368.7 1590.3 1374.3 1629 1356.3C1667.7 1338.3 1706.3 1296.7 1745.2 1286.5C1784 1276.3 1823 1297.7 1861.8 1312.3C1900.7 1327 1939.3 1335 1978.2 1333.7C2017 1332.3 2056 1321.7 2094.8 1308.5C2133.7 1295.3 2172.3 1279.7 2211 1277.7C2249.7 1275.7 2288.3 1287.3 2327.2 1309C2366 1330.7 2405 1362.3 2443.8 1363.3C2482.7 1364.3 2521.3 1334.7 2540.7 1319.8L2560 1305L2560 1441L2540.7 1441C2521.3 1441 2482.7 1441 2443.8 1441C2405 1441 2366 1441 2327.2 1441C2288.3 1441 2249.7 1441 2211 1441C2172.3 1441 2133.7 1441 2094.8 1441C2056 1441 2017 1441 1978.2 1441C1939.3 1441 1900.7 1441 1861.8 1441C1823 1441 1784 1441 1745.2 1441C1706.3 1441 1667.7 1441 1629 1441C1590.3 1441 1551.7 1441 1512.8 1441C1474 1441 1435 1441 1396.2 1441C1357.3 1441 1318.7 1441 1280 1441C1241.3 1441 1202.7 1441 1163.8 1441C1125 1441 1086 1441 1047.2 1441C1008.3 1441 969.7 1441 931 1441C892.3 1441 853.7 1441 814.8 1441C776 1441 737 1441 698.2 1441C659.3 1441 620.7 1441 581.8 1441C543 1441 504 1441 465.2 1441C426.3 1441 387.7 1441 349 1441C310.3 1441 271.7 1441 232.8 1441C194 1441 155 1441 116.2 1441C77.3 1441 38.7 1441 19.3 1441L0 1441Z" fill="#ffbc4d"></path><path d="M0 1405L19.3 1397C38.7 1389 77.3 1373 116.2 1370C155 1367 194 1377 232.8 1370.7C271.7 1364.3 310.3 1341.7 349 1339C387.7 1336.3 426.3 1353.7 465.2 1365.8C504 1378 543 1385 581.8 1375.2C620.7 1365.3 659.3 1338.7 698.2 1330.2C737 1321.7 776 1331.3 814.8 1346.7C853.7 1362 892.3 1383 931 1385.5C969.7 1388 1008.3 1372 1047.2 1355.2C1086 1338.3 1125 1320.7 1163.8 1324.5C1202.7 1328.3 1241.3 1353.7 1280 1353.2C1318.7 1352.7 1357.3 1326.3 1396.2 1323.5C1435 1320.7 1474 1341.3 1512.8 1345.5C1551.7 1349.7 1590.3 1337.3 1629 1335.5C1667.7 1333.7 1706.3 1342.3 1745.2 1343C1784 1343.7 1823 1336.3 1861.8 1329.2C1900.7 1322 1939.3 1315 1978.2 1309.8C2017 1304.7 2056 1301.3 2094.8 1315.3C2133.7 1329.3 2172.3 1360.7 2211 1373.5C2249.7 1386.3 2288.3 1380.7 2327.2 1374.3C2366 1368 2405 1361 2443.8 1357.5C2482.7 1354 2521.3 1354 2540.7 1354L2560 1354L2560 1441L2540.7 1441C2521.3 1441 2482.7 1441 2443.8 1441C2405 1441 2366 1441 2327.2 1441C2288.3 1441 2249.7 1441 2211 1441C2172.3 1441 2133.7 1441 2094.8 1441C2056 1441 2017 1441 1978.2 1441C1939.3 1441 1900.7 1441 1861.8 1441C1823 1441 1784 1441 1745.2 1441C1706.3 1441 1667.7 1441 1629 1441C1590.3 1441 1551.7 1441 1512.8 1441C1474 1441 1435 1441 1396.2 1441C1357.3 1441 1318.7 1441 1280 1441C1241.3 1441 1202.7 1441 1163.8 1441C1125 1441 1086 1441 1047.2 1441C1008.3 1441 969.7 1441 931 1441C892.3 1441 853.7 1441 814.8 1441C776 1441 737 1441 698.2 1441C659.3 1441 620.7 1441 581.8 1441C543 1441 504 1441 465.2 1441C426.3 1441 387.7 1441 349 1441C310.3 1441 271.7 1441 232.8 1441C194 1441 155 1441 116.2 1441C77.3 1441 38.7 1441 19.3 1441L0 1441Z" fill="#ff8e46"></path><path d="M0 1411L19.3 1409.5C38.7 1408 77.3 1405 116.2 1395.3C155 1385.7 194 1369.3 232.8 1359.7C271.7 1350 310.3 1347 349 1353.2C387.7 1359.3 426.3 1374.7 465.2 1383C504 1391.3 543 1392.7 581.8 1394C620.7 1395.3 659.3 1396.7 698.2 1400.8C737 1405 776 1412 814.8 1405.3C853.7 1398.7 892.3 1378.3 931 1369.2C969.7 1360 1008.3 1362 1047.2 1365.2C1086 1368.3 1125 1372.7 1163.8 1382C1202.7 1391.3 1241.3 1405.7 1280 1404C1318.7 1402.3 1357.3 1384.7 1396.2 1379.3C1435 1374 1474 1381 1512.8 1384.7C1551.7 1388.3 1590.3 1388.7 1629 1382C1667.7 1375.3 1706.3 1361.7 1745.2 1361.2C1784 1360.7 1823 1373.3 1861.8 1384.8C1900.7 1396.3 1939.3 1406.7 1978.2 1409.2C2017 1411.7 2056 1406.3 2094.8 1398.8C2133.7 1391.3 2172.3 1381.7 2211 1379.8C2249.7 1378 2288.3 1384 2327.2 1384.7C2366 1385.3 2405 1380.7 2443.8 1378C2482.7 1375.3 2521.3 1374.7 2540.7 1374.3L2560 1374L2560 1441L2540.7 1441C2521.3 1441 2482.7 1441 2443.8 1441C2405 1441 2366 1441 2327.2 1441C2288.3 1441 2249.7 1441 2211 1441C2172.3 1441 2133.7 1441 2094.8 1441C2056 1441 2017 1441 1978.2 1441C1939.3 1441 1900.7 1441 1861.8 1441C1823 1441 1784 1441 1745.2 1441C1706.3 1441 1667.7 1441 1629 1441C1590.3 1441 1551.7 1441 1512.8 1441C1474 1441 1435 1441 1396.2 1441C1357.3 1441 1318.7 1441 1280 1441C1241.3 1441 1202.7 1441 1163.8 1441C1125 1441 1086 1441 1047.2 1441C1008.3 1441 969.7 1441 931 1441C892.3 1441 853.7 1441 814.8 1441C776 1441 737 1441 698.2 1441C659.3 1441 620.7 1441 581.8 1441C543 1441 504 1441 465.2 1441C426.3 1441 387.7 1441 349 1441C310.3 1441 271.7 1441 232.8 1441C194 1441 155 1441 116.2 1441C77.3 1441 38.7 1441 19.3 1441L0 1441Z" fill="#f75e4f"></path></svg>