<svg id="visual" viewBox="0 0 2560 1440" width="2560" height="1440" xmlns="http://www.w3.org/2000/svg" xmlns:xlink="http://www.w3.org/1999/xlink" version="1.1"><rect x="0" y="0" width="2560" height="1440" fill="#ededed"></rect><path d="M399 0L365.7 12C332.3 24 265.7 48 226.7 72C187.7 96 176.3 120 173.2 144C170 168 175 192 216.3 216C257.7 240 335.3 264 377.5 288C419.7 312 426.3 336 380.3 360C334.3 384 235.7 408 268.3 432C301 456 465 480 492.5 504C520 528 411 552 389.8 576C368.7 600 435.3 624 424.5 648C413.7 672 325.3 696 307.2 720C289 744 341 768 374.7 792C408.3 816 423.7 840 436.8 864C450 888 461 912 430 936C399 960 326 984 294.5 1008C263 1032 273 1056 293.8 1080C314.7 1104 346.3 1128 335 1152C323.7 1176 269.3 1200 261.3 1224C253.3 1248 291.7 1272 283 1296C274.3 1320 218.7 1344 200.2 1368C181.7 1392 200.3 1416 209.7 1428L219 1440L0 1440L0 1428C0 1416 0 1392 0 1368C0 1344 0 1320 0 1296C0 1272 0 1248 0 1224C0 1200 0 1176 0 1152C0 1128 0 1104 0 1080C0 1056 0 1032 0 1008C0 984 0 960 0 936C0 912 0 888 0 864C0 840 0 816 0 792C0 768 0 744 0 720C0 696 0 672 0 648C0 624 0 600 0 576C0 552 0 528 0 504C0 480 0 456 0 432C0 408 0 384 0 360C0 336 0 312 0 288C0 264 0 240 0 216C0 192 0 168 0 144C0 120 0 96 0 72C0 48 0 24 0 12L0 0Z" fill="#fae869"></path><path d="M452 0L406.2 12C360.3 24 268.7 48 253.2 72C237.7 96 298.3 120 311.8 144C325.3 168 291.7 192 281.7 216C271.7 240 285.3 264 307.3 288C329.3 312 359.7 336 392.8 360C426 384 462 408 452.3 432C442.7 456 387.3 480 380.2 504C373 528 414 552 428 576C442 600 429 624 434 648C439 672 462 696 452.3 720C442.7 744 400.3 768 408.3 792C416.3 816 474.7 840 499.3 864C524 888 515 912 486.7 936C458.3 960 410.7 984 353.3 1008C296 1032 229 1056 198.2 1080C167.3 1104 172.7 1128 178 1152C183.3 1176 188.7 1200 221.5 1224C254.3 1248 314.7 1272 378.7 1296C442.7 1320 510.3 1344 483.2 1368C456 1392 334 1416 273 1428L212 1440L0 1440L0 1428C0 1416 0 1392 0 1368C0 1344 0 1320 0 1296C0 1272 0 1248 0 1224C0 1200 0 1176 0 1152C0 1128 0 1104 0 1080C0 1056 0 1032 0 1008C0 984 0 960 0 936C0 912 0 888 0 864C0 840 0 816 0 792C0 768 0 744 0 720C0 696 0 672 0 648C0 624 0 600 0 576C0 552 0 528 0 504C0 480 0 456 0 432C0 408 0 384 0 360C0 336 0 312 0 288C0 264 0 240 0 216C0 192 0 168 0 144C0 120 0 96 0 72C0 48 0 24 0 12L0 0Z" fill="#fcdb5f"></path><path d="M502 0L453 12C404 24 306 48 288.7 72C271.3 96 334.7 120 324 144C313.3 168 228.7 192 204.5 216C180.3 240 216.7 264 266 288C315.3 312 377.7 336 412.7 360C447.7 384 455.3 408 463.3 432C471.3 456 479.7 480 424.2 504C368.7 528 249.3 552 205.2 576C161 600 192 624 190.5 648C189 672 155 696 159.2 720C163.3 744 205.7 768 244.8 792C284 816 320 840 343.8 864C367.7 888 379.3 912 379.7 936C380 960 369 984 372.8 1008C376.7 1032 395.3 1056 408.8 1080C422.3 1104 430.7 1128 381.8 1152C333 1176 227 1200 210.8 1224C194.7 1248 268.3 1272 303.7 1296C339 1320 336 1344 365.3 1368C394.7 1392 456.3 1416 487.2 1428L518 1440L0 1440L0 1428C0 1416 0 1392 0 1368C0 1344 0 1320 0 1296C0 1272 0 1248 0 1224C0 1200 0 1176 0 1152C0 1128 0 1104 0 1080C0 1056 0 1032 0 1008C0 984 0 960 0 936C0 912 0 888 0 864C0 840 0 816 0 792C0 768 0 744 0 720C0 696 0 672 0 648C0 624 0 600 0 576C0 552 0 528 0 504C0 480 0 456 0 432C0 408 0 384 0 360C0 336 0 312 0 288C0 264 0 240 0 216C0 192 0 168 0 144C0 120 0 96 0 72C0 48 0 24 0 12L0 0Z" fill="#fece56"></path><path d="M99 0L144.2 12C189.3 24 279.7 48 311 72C342.3 96 314.7 120 298.8 144C283 168 279 192 292.2 216C305.3 240 335.7 264 370.3 288C405 312 444 336 406.5 360C369 384 255 408 200 432C145 456 149 480 151 504C153 528 153 552 192.5 576C232 600 311 624 324.7 648C338.3 672 286.7 696 295.8 720C305 744 375 768 352.5 792C330 816 215 840 156.5 864C98 888 96 912 119 936C142 960 190 984 189.3 1008C188.7 1032 139.3 1056 143 1080C146.7 1104 203.3 1128 214.2 1152C225 1176 190 1200 163.5 1224C137 1248 119 1272 144.5 1296C170 1320 239 1344 295.2 1368C351.3 1392 394.7 1416 416.3 1428L438 1440L0 1440L0 1428C0 1416 0 1392 0 1368C0 1344 0 1320 0 1296C0 1272 0 1248 0 1224C0 1200 0 1176 0 1152C0 1128 0 1104 0 1080C0 1056 0 1032 0 1008C0 984 0 960 0 936C0 912 0 888 0 864C0 840 0 816 0 792C0 768 0 744 0 720C0 696 0 672 0 648C0 624 0 600 0 576C0 552 0 528 0 504C0 480 0 456 0 432C0 408 0 384 0 360C0 336 0 312 0 288C0 264 0 240 0 216C0 192 0 168 0 144C0 120 0 96 0 72C0 48 0 24 0 12L0 0Z" fill="#ffc04f"></path><path d="M399 0L348.5 12C298 24 197 48 170.7 72C144.3 96 192.7 120 204.2 144C215.7 168 190.3 192 164 216C137.7 240 110.3 264 111.2 288C112 312 141 336 182.2 360C223.3 384 276.7 408 262.8 432C249 456 168 480 140.7 504C113.3 528 139.7 552 149.2 576C158.7 600 151.3 624 145.5 648C139.7 672 135.3 696 138.8 720C142.3 744 153.7 768 198 792C242.3 816 319.7 840 333.2 864C346.7 888 296.3 912 281.8 936C267.3 960 288.7 984 294.2 1008C299.7 1032 289.3 1056 252.5 1080C215.7 1104 152.3 1128 147.7 1152C143 1176 197 1200 208.2 1224C219.3 1248 187.7 1272 159.7 1296C131.7 1320 107.3 1344 138 1368C168.7 1392 254.3 1416 297.2 1428L340 1440L0 1440L0 1428C0 1416 0 1392 0 1368C0 1344 0 1320 0 1296C0 1272 0 1248 0 1224C0 1200 0 1176 0 1152C0 1128 0 1104 0 1080C0 1056 0 1032 0 1008C0 984 0 960 0 936C0 912 0 888 0 864C0 840 0 816 0 792C0 768 0 744 0 720C0 696 0 672 0 648C0 624 0 600 0 576C0 552 0 528 0 504C0 480 0 456 0 432C0 408 0 384 0 360C0 336 0 312 0 288C0 264 0 240 0 216C0 192 0 168 0 144C0 120 0 96 0 72C0 48 0 24 0 12L0 0Z" fill="#ffb34a"></path><path d="M309 0L287.2 12C265.3 24 221.7 48 212.2 72C202.7 96 227.3 120 212.2 144C197 168 142 192 161.5 216C181 240 275 264 292.5 288C310 312 251 336 240.5 360C230 384 268 408 269.3 432C270.7 456 235.3 480 206.5 504C177.7 528 155.3 552 159 576C162.7 600 192.3 624 197.3 648C202.3 672 182.7 696 192.7 720C202.7 744 242.3 768 266.7 792C291 816 300 840 268.7 864C237.3 888 165.7 912 159.7 936C153.7 960 213.3 984 233 1008C252.7 1032 232.3 1056 229.3 1080C226.3 1104 240.7 1128 245.8 1152C251 1176 247 1200 226.7 1224C206.3 1248 169.7 1272 172.2 1296C174.7 1320 216.3 1344 236.7 1368C257 1392 256 1416 255.5 1428L255 1440L0 1440L0 1428C0 1416 0 1392 0 1368C0 1344 0 1320 0 1296C0 1272 0 1248 0 1224C0 1200 0 1176 0 1152C0 1128 0 1104 0 1080C0 1056 0 1032 0 1008C0 984 0 960 0 936C0 912 0 888 0 864C0 840 0 816 0 792C0 768 0 744 0 720C0 696 0 672 0 648C0 624 0 600 0 576C0 552 0 528 0 504C0 480 0 456 0 432C0 408 0 384 0 360C0 336 0 312 0 288C0 264 0 240 0 216C0 192 0 168 0 144C0 120 0 96 0 72C0 48 0 24 0 12L0 0Z" fill="#ffa547"></path><path d="M201 0L203.7 12C206.3 24 211.7 48 215.3 72C219 96 221 120 229.8 144C238.7 168 254.3 192 240.5 216C226.7 240 183.3 264 191.8 288C200.3 312 260.7 336 265.3 360C270 384 219 408 190.5 432C162 456 156 480 182 504C208 528 266 552 284.2 576C302.3 600 280.7 624 259.2 648C237.7 672 216.3 696 215.8 720C215.3 744 235.7 768 242 792C248.3 816 240.7 840 240.8 864C241 888 249 912 264.5 936C280 960 303 984 272.8 1008C242.7 1032 159.3 1056 135.3 1080C111.3 1104 146.7 1128 156.5 1152C166.3 1176 150.7 1200 163.8 1224C177 1248 219 1272 214 1296C209 1320 157 1344 131 1368C105 1392 105 1416 105 1428L105 1440L0 1440L0 1428C0 1416 0 1392 0 1368C0 1344 0 1320 0 1296C0 1272 0 1248 0 1224C0 1200 0 1176 0 1152C0 1128 0 1104 0 1080C0 1056 0 1032 0 1008C0 984 0 960 0 936C0 912 0 888 0 864C0 840 0 816 0 792C0 768 0 744 0 720C0 696 0 672 0 648C0 624 0 600 0 576C0 552 0 528 0 504C0 480 0 456 0 432C0 408 0 384 0 360C0 336 0 312 0 288C0 264 0 240 0 216C0 192 0 168 0 144C0 120 0 96 0 72C0 48 0 24 0 12L0 0Z" fill="#ff9746"></path><path d="M203 0L202.8 12C202.7 24 202.3 48 201.8 72C201.3 96 200.7 120 180.3 144C160 168 120 192 124.2 216C128.3 240 176.7 264 198.8 288C221 312 217 336 223.3 360C229.7 384 246.3 408 244.5 432C242.7 456 222.3 480 191 504C159.7 528 117.3 552 97.7 576C78 600 81 624 107.5 648C134 672 184 696 184.3 720C184.7 744 135.3 768 115.2 792C95 816 104 840 132.2 864C160.3 888 207.7 912 217.8 936C228 960 201 984 192.5 1008C184 1032 194 1056 210.3 1080C226.7 1104 249.3 1128 260 1152C270.7 1176 269.3 1200 246.5 1224C223.7 1248 179.3 1272 143.2 1296C107 1320 79 1344 98.7 1368C118.3 1392 185.7 1416 219.3 1428L253 1440L0 1440L0 1428C0 1416 0 1392 0 1368C0 1344 0 1320 0 1296C0 1272 0 1248 0 1224C0 1200 0 1176 0 1152C0 1128 0 1104 0 1080C0 1056 0 1032 0 1008C0 984 0 960 0 936C0 912 0 888 0 864C0 840 0 816 0 792C0 768 0 744 0 720C0 696 0 672 0 648C0 624 0 600 0 576C0 552 0 528 0 504C0 480 0 456 0 432C0 408 0 384 0 360C0 336 0 312 0 288C0 264 0 240 0 216C0 192 0 168 0 144C0 120 0 96 0 72C0 48 0 24 0 12L0 0Z" fill="#ff8946"></path><path d="M46 0L60.8 12C75.7 24 105.3 48 107 72C108.7 96 82.3 120 84.7 144C87 168 118 192 118.3 216C118.7 240 88.3 264 84.2 288C80 312 102 336 104.5 360C107 384 90 408 98.3 432C106.7 456 140.3 480 142.5 504C144.7 528 115.3 552 94.2 576C73 600 60 624 74.5 648C89 672 131 696 156.5 720C182 744 191 768 190.8 792C190.7 816 181.3 840 176.7 864C172 888 172 912 154.8 936C137.7 960 103.3 984 87.7 1008C72 1032 75 1056 86.5 1080C98 1104 118 1128 131.2 1152C144.3 1176 150.7 1200 138 1224C125.3 1248 93.7 1272 102.5 1296C111.3 1320 160.7 1344 161.5 1368C162.3 1392 114.7 1416 90.8 1428L67 1440L0 1440L0 1428C0 1416 0 1392 0 1368C0 1344 0 1320 0 1296C0 1272 0 1248 0 1224C0 1200 0 1176 0 1152C0 1128 0 1104 0 1080C0 1056 0 1032 0 1008C0 984 0 960 0 936C0 912 0 888 0 864C0 840 0 816 0 792C0 768 0 744 0 720C0 696 0 672 0 648C0 624 0 600 0 576C0 552 0 528 0 504C0 480 0 456 0 432C0 408 0 384 0 360C0 336 0 312 0 288C0 264 0 240 0 216C0 192 0 168 0 144C0 120 0 96 0 72C0 48 0 24 0 12L0 0Z" fill="#fd7b48"></path><path d="M39 0L55.3 12C71.7 24 104.3 48 113.7 72C123 96 109 120 109.3 144C109.7 168 124.3 192 118.7 216C113 240 87 264 78 288C69 312 77 336 75.7 360C74.3 384 63.7 408 71.3 432C79 456 105 480 117 504C129 528 127 552 113.7 576C100.3 600 75.7 624 62.8 648C50 672 49 696 48.7 720C48.3 744 48.7 768 48.8 792C49 816 49 840 53.8 864C58.7 888 68.3 912 76.8 936C85.3 960 92.7 984 107 1008C121.3 1032 142.7 1056 143 1080C143.3 1104 122.7 1128 122.7 1152C122.7 1176 143.3 1200 138.8 1224C134.3 1248 104.7 1272 97.2 1296C89.7 1320 104.3 1344 98.7 1368C93 1392 67 1416 54 1428L41 1440L0 1440L0 1428C0 1416 0 1392 0 1368C0 1344 0 1320 0 1296C0 1272 0 1248 0 1224C0 1200 0 1176 0 1152C0 1128 0 1104 0 1080C0 1056 0 1032 0 1008C0 984 0 960 0 936C0 912 0 888 0 864C0 840 0 816 0 792C0 768 0 744 0 720C0 696 0 672 0 648C0 624 0 600 0 576C0 552 0 528 0 504C0 480 0 456 0 432C0 408 0 384 0 360C0 336 0 312 0 288C0 264 0 240 0 216C0 192 0 168 0 144C0 120 0 96 0 72C0 48 0 24 0 12L0 0Z" fill="#fb6d4b"></path><path d="M83 0L78 12C73 24 63 48 52.8 72C42.7 96 32.3 120 29.8 144C27.3 168 32.7 192 47.3 216C62 240 86 264 83.7 288C81.3 312 52.7 336 44.8 360C37 384 50 408 53.8 432C57.7 456 52.3 480 52.5 504C52.7 528 58.3 552 56.5 576C54.7 600 45.3 624 46.7 648C48 672 60 696 69.3 720C78.7 744 85.3 768 77.7 792C70 816 48 840 36.2 864C24.3 888 22.7 912 26.2 936C29.7 960 38.3 984 44 1008C49.7 1032 52.3 1056 60.5 1080C68.7 1104 82.3 1128 88.7 1152C95 1176 94 1200 84.8 1224C75.7 1248 58.3 1272 60.7 1296C63 1320 85 1344 81.7 1368C78.3 1392 49.7 1416 35.3 1428L21 1440L0 1440L0 1428C0 1416 0 1392 0 1368C0 1344 0 1320 0 1296C0 1272 0 1248 0 1224C0 1200 0 1176 0 1152C0 1128 0 1104 0 1080C0 1056 0 1032 0 1008C0 984 0 960 0 936C0 912 0 888 0 864C0 840 0 816 0 792C0 768 0 744 0 720C0 696 0 672 0 648C0 624 0 600 0 576C0 552 0 528 0 504C0 480 0 456 0 432C0 408 0 384 0 360C0 336 0 312 0 288C0 264 0 240 0 216C0 192 0 168 0 144C0 120 0 96 0 72C0 48 0 24 0 12L0 0Z" fill="#f75e4f"></path></svg>