<svg id="visual" viewBox="0 0 2560 1440" width="2560" height="1440" xmlns="http://www.w3.org/2000/svg" xmlns:xlink="http://www.w3.org/1999/xlink" version="1.1"><rect x="0" y="0" width="2560" height="1440" fill="#ececec"></rect><path d="M0 893L61 885.3C122 877.7 244 862.3 365.8 882.8C487.7 903.3 609.3 959.7 731.2 992C853 1024.3 975 1032.7 1097 1035.5C1219 1038.3 1341 1035.7 1463 1014.8C1585 994 1707 955 1828.8 953.2C1950.7 951.3 2072.3 986.7 2194.2 1011.8C2316 1037 2438 1052 2499 1059.5L2560 1067L2560 1441L2499 1441C2438 1441 2316 1441 2194.2 1441C2072.3 1441 1950.7 1441 1828.8 1441C1707 1441 1585 1441 1463 1441C1341 1441 1219 1441 1097 1441C975 1441 853 1441 731.2 1441C609.3 1441 487.7 1441 365.8 1441C244 1441 122 1441 61 1441L0 1441Z" fill="#fae869"></path><path d="M0 999L61 1024.7C122 1050.3 244 1101.7 365.8 1115.7C487.7 1129.7 609.3 1106.3 731.2 1099C853 1091.7 975 1100.3 1097 1077.7C1219 1055 1341 1001 1463 974.5C1585 948 1707 949 1828.8 971.5C1950.7 994 2072.3 1038 2194.2 1069.7C2316 1101.3 2438 1120.7 2499 1130.3L2560 1140L2560 1441L2499 1441C2438 1441 2316 1441 2194.2 1441C2072.3 1441 1950.7 1441 1828.8 1441C1707 1441 1585 1441 1463 1441C1341 1441 1219 1441 1097 1441C975 1441 853 1441 731.2 1441C609.3 1441 487.7 1441 365.8 1441C244 1441 122 1441 61 1441L0 1441Z" fill="#ffc752"></path><path d="M0 1215L61 1216.7C122 1218.3 244 1221.7 365.8 1201.3C487.7 1181 609.3 1137 731.2 1116C853 1095 975 1097 1097 1102.3C1219 1107.7 1341 1116.3 1463 1109.3C1585 1102.3 1707 1079.7 1828.8 1091.5C1950.7 1103.3 2072.3 1149.7 2194.2 1159.2C2316 1168.7 2438 1141.3 2499 1127.7L2560 1114L2560 1441L2499 1441C2438 1441 2316 1441 2194.2 1441C2072.3 1441 1950.7 1441 1828.8 1441C1707 1441 1585 1441 1463 1441C1341 1441 1219 1441 1097 1441C975 1441 853 1441 731.2 1441C609.3 1441 487.7 1441 365.8 1441C244 1441 122 1441 61 1441L0 1441Z" fill="#ffa547"></path><path d="M0 1199L61 1207.5C122 1216 244 1233 365.8 1227.2C487.7 1221.3 609.3 1192.7 731.2 1180.7C853 1168.7 975 1173.3 1097 1178.5C1219 1183.7 1341 1189.3 1463 1201.2C1585 1213 1707 1231 1828.8 1227C1950.7 1223 2072.3 1197 2194.2 1183.8C2316 1170.7 2438 1170.3 2499 1170.2L2560 1170L2560 1441L2499 1441C2438 1441 2316 1441 2194.2 1441C2072.3 1441 1950.7 1441 1828.8 1441C1707 1441 1585 1441 1463 1441C1341 1441 1219 1441 1097 1441C975 1441 853 1441 731.2 1441C609.3 1441 487.7 1441 365.8 1441C244 1441 122 1441 61 1441L0 1441Z" fill="#fe8247"></path><path d="M0 1366L61 1354.7C122 1343.3 244 1320.7 365.8 1319C487.7 1317.3 609.3 1336.7 731.2 1332.5C853 1328.3 975 1300.7 1097 1298.2C1219 1295.7 1341 1318.3 1463 1329.5C1585 1340.7 1707 1340.3 1828.8 1327.8C1950.7 1315.3 2072.3 1290.7 2194.2 1289C2316 1287.3 2438 1308.7 2499 1319.3L2560 1330L2560 1441L2499 1441C2438 1441 2316 1441 2194.2 1441C2072.3 1441 1950.7 1441 1828.8 1441C1707 1441 1585 1441 1463 1441C1341 1441 1219 1441 1097 1441C975 1441 853 1441 731.2 1441C609.3 1441 487.7 1441 365.8 1441C244 1441 122 1441 61 1441L0 1441Z" fill="#f75e4f"></path></svg>