<svg id="visual" viewBox="0 0 2560 1440" width="2560" height="1440" xmlns="http://www.w3.org/2000/svg" xmlns:xlink="http://www.w3.org/1999/xlink" version="1.1"><rect x="0" y="0" width="2560" height="1440" fill="#ededed"></rect><path d="M1858 1440L1872.3 1405.7C1886.7 1371.3 1915.3 1302.7 2017.3 1234.2C2119.3 1165.7 2294.7 1097.3 2368.7 1028.8C2442.7 960.3 2415.3 891.7 2404.8 823C2394.3 754.3 2400.7 685.7 2361 617C2321.3 548.3 2235.7 479.7 2250.5 411.2C2265.3 342.7 2380.7 274.3 2412.8 205.8C2445 137.3 2394 68.7 2368.5 34.3L2343 0L2560 0L2560 34.3C2560 68.7 2560 137.3 2560 205.8C2560 274.3 2560 342.7 2560 411.2C2560 479.7 2560 548.3 2560 617C2560 685.7 2560 754.3 2560 823C2560 891.7 2560 960.3 2560 1028.8C2560 1097.3 2560 1165.7 2560 1234.2C2560 1302.7 2560 1371.3 2560 1405.7L2560 1440Z" fill="#fae869"></path><path d="M1905 1440L1943.3 1405.7C1981.7 1371.3 2058.3 1302.7 2123.8 1234.2C2189.3 1165.7 2243.7 1097.3 2206.2 1028.8C2168.7 960.3 2039.3 891.7 2053.2 823C2067 754.3 2224 685.7 2320.8 617C2417.7 548.3 2454.3 479.7 2440 411.2C2425.7 342.7 2360.3 274.3 2352.8 205.8C2345.3 137.3 2395.7 68.7 2420.8 34.3L2446 0L2560 0L2560 34.3C2560 68.7 2560 137.3 2560 205.8C2560 274.3 2560 342.7 2560 411.2C2560 479.7 2560 548.3 2560 617C2560 685.7 2560 754.3 2560 823C2560 891.7 2560 960.3 2560 1028.8C2560 1097.3 2560 1165.7 2560 1234.2C2560 1302.7 2560 1371.3 2560 1405.7L2560 1440Z" fill="#fdd45a"></path><path d="M2268 1440L2269 1405.7C2270 1371.3 2272 1302.7 2295.8 1234.2C2319.7 1165.7 2365.3 1097.3 2347.3 1028.8C2329.3 960.3 2247.7 891.7 2246.5 823C2245.3 754.3 2324.7 685.7 2378.5 617C2432.3 548.3 2460.7 479.7 2449.8 411.2C2439 342.7 2389 274.3 2392.7 205.8C2396.3 137.3 2453.7 68.7 2482.3 34.3L2511 0L2560 0L2560 34.3C2560 68.7 2560 137.3 2560 205.8C2560 274.3 2560 342.7 2560 411.2C2560 479.7 2560 548.3 2560 617C2560 685.7 2560 754.3 2560 823C2560 891.7 2560 960.3 2560 1028.8C2560 1097.3 2560 1165.7 2560 1234.2C2560 1302.7 2560 1371.3 2560 1405.7L2560 1440Z" fill="#ffc04f"></path><path d="M2501 1440L2449.2 1405.7C2397.3 1371.3 2293.7 1302.7 2240.3 1234.2C2187 1165.7 2184 1097.3 2208.5 1028.8C2233 960.3 2285 891.7 2304 823C2323 754.3 2309 685.7 2309.2 617C2309.3 548.3 2323.7 479.7 2357.8 411.2C2392 342.7 2446 274.3 2426.5 205.8C2407 137.3 2314 68.7 2267.5 34.3L2221 0L2560 0L2560 34.3C2560 68.7 2560 137.3 2560 205.8C2560 274.3 2560 342.7 2560 411.2C2560 479.7 2560 548.3 2560 617C2560 685.7 2560 754.3 2560 823C2560 891.7 2560 960.3 2560 1028.8C2560 1097.3 2560 1165.7 2560 1234.2C2560 1302.7 2560 1371.3 2560 1405.7L2560 1440Z" fill="#ffac48"></path><path d="M2297 1440L2317 1405.7C2337 1371.3 2377 1302.7 2372.8 1234.2C2368.7 1165.7 2320.3 1097.3 2310.7 1028.8C2301 960.3 2330 891.7 2331.8 823C2333.7 754.3 2308.3 685.7 2323.7 617C2339 548.3 2395 479.7 2400.5 411.2C2406 342.7 2361 274.3 2348.3 205.8C2335.7 137.3 2355.3 68.7 2365.2 34.3L2375 0L2560 0L2560 34.3C2560 68.7 2560 137.3 2560 205.8C2560 274.3 2560 342.7 2560 411.2C2560 479.7 2560 548.3 2560 617C2560 685.7 2560 754.3 2560 823C2560 891.7 2560 960.3 2560 1028.8C2560 1097.3 2560 1165.7 2560 1234.2C2560 1302.7 2560 1371.3 2560 1405.7L2560 1440Z" fill="#ff9746"></path><path d="M2554 1440L2541.8 1405.7C2529.7 1371.3 2505.3 1302.7 2491.8 1234.2C2478.3 1165.7 2475.7 1097.3 2453.7 1028.8C2431.7 960.3 2390.3 891.7 2388 823C2385.7 754.3 2422.3 685.7 2428.3 617C2434.3 548.3 2409.7 479.7 2425.2 411.2C2440.7 342.7 2496.3 274.3 2491.5 205.8C2486.7 137.3 2421.3 68.7 2388.7 34.3L2356 0L2560 0L2560 34.3C2560 68.7 2560 137.3 2560 205.8C2560 274.3 2560 342.7 2560 411.2C2560 479.7 2560 548.3 2560 617C2560 685.7 2560 754.3 2560 823C2560 891.7 2560 960.3 2560 1028.8C2560 1097.3 2560 1165.7 2560 1234.2C2560 1302.7 2560 1371.3 2560 1405.7L2560 1440Z" fill="#fe8247"></path></svg>