<svg id="visual" viewBox="0 0 2560 1440" width="2560" height="1440" xmlns="http://www.w3.org/2000/svg" xmlns:xlink="http://www.w3.org/1999/xlink" version="1.1"><path d="M2350 1440L2351.7 1428.5C2353.3 1417 2356.7 1394 2360.7 1371.2C2364.7 1348.3 2369.3 1325.7 2371.7 1302.8C2374 1280 2374 1257 2366 1234.2C2358 1211.3 2342 1188.7 2333.8 1165.8C2325.7 1143 2325.3 1120 2331.3 1097.2C2337.3 1074.3 2349.7 1051.7 2360.8 1028.8C2372 1006 2382 983 2376.3 960C2370.7 937 2349.3 914 2344.2 891.2C2339 868.3 2350 845.7 2360.3 822.8C2370.7 800 2380.3 777 2377.3 754.2C2374.3 731.3 2358.7 708.7 2349.8 685.8C2341 663 2339 640 2342.8 617.2C2346.7 594.3 2356.3 571.7 2358.7 548.8C2361 526 2356 503 2350.3 480C2344.7 457 2338.3 434 2342.5 411.2C2346.7 388.3 2361.3 365.7 2363.3 342.8C2365.3 320 2354.7 297 2349.5 274.2C2344.3 251.3 2344.7 228.7 2345.7 205.8C2346.7 183 2348.3 160 2343.3 137.2C2338.3 114.3 2326.7 91.7 2328.7 68.8C2330.7 46 2346.3 23 2354.2 11.5L2362 0L2560 0L2560 11.5C2560 23 2560 46 2560 68.8C2560 91.7 2560 114.3 2560 137.2C2560 160 2560 183 2560 205.8C2560 228.7 2560 251.3 2560 274.2C2560 297 2560 320 2560 342.8C2560 365.7 2560 388.3 2560 411.2C2560 434 2560 457 2560 480C2560 503 2560 526 2560 548.8C2560 571.7 2560 594.3 2560 617.2C2560 640 2560 663 2560 685.8C2560 708.7 2560 731.3 2560 754.2C2560 777 2560 800 2560 822.8C2560 845.7 2560 868.3 2560 891.2C2560 914 2560 937 2560 960C2560 983 2560 1006 2560 1028.8C2560 1051.7 2560 1074.3 2560 1097.2C2560 1120 2560 1143 2560 1165.8C2560 1188.7 2560 1211.3 2560 1234.2C2560 1257 2560 1280 2560 1302.8C2560 1325.7 2560 1348.3 2560 1371.2C2560 1394 2560 1417 2560 1428.5L2560 1440Z" fill="#fae869"></path><path d="M2363 1440L2368.7 1428.5C2374.3 1417 2385.7 1394 2397.3 1371.2C2409 1348.3 2421 1325.7 2418.7 1302.8C2416.3 1280 2399.7 1257 2398.7 1234.2C2397.7 1211.3 2412.3 1188.7 2414.5 1165.8C2416.7 1143 2406.3 1120 2405 1097.2C2403.7 1074.3 2411.3 1051.7 2412.3 1028.8C2413.3 1006 2407.7 983 2399.7 960C2391.7 937 2381.3 914 2378.2 891.2C2375 868.3 2379 845.7 2377.7 822.8C2376.3 800 2369.7 777 2368 754.2C2366.3 731.3 2369.7 708.7 2374.5 685.8C2379.3 663 2385.7 640 2389.7 617.2C2393.7 594.3 2395.3 571.7 2399.3 548.8C2403.3 526 2409.7 503 2406.8 480C2404 457 2392 434 2382.8 411.2C2373.7 388.3 2367.3 365.7 2365.2 342.8C2363 320 2365 297 2365.3 274.2C2365.7 251.3 2364.3 228.7 2365 205.8C2365.7 183 2368.3 160 2369 137.2C2369.7 114.3 2368.3 91.7 2370.2 68.8C2372 46 2377 23 2379.5 11.5L2382 0L2560 0L2560 11.5C2560 23 2560 46 2560 68.8C2560 91.7 2560 114.3 2560 137.2C2560 160 2560 183 2560 205.8C2560 228.7 2560 251.3 2560 274.2C2560 297 2560 320 2560 342.8C2560 365.7 2560 388.3 2560 411.2C2560 434 2560 457 2560 480C2560 503 2560 526 2560 548.8C2560 571.7 2560 594.3 2560 617.2C2560 640 2560 663 2560 685.8C2560 708.7 2560 731.3 2560 754.2C2560 777 2560 800 2560 822.8C2560 845.7 2560 868.3 2560 891.2C2560 914 2560 937 2560 960C2560 983 2560 1006 2560 1028.8C2560 1051.7 2560 1074.3 2560 1097.2C2560 1120 2560 1143 2560 1165.8C2560 1188.7 2560 1211.3 2560 1234.2C2560 1257 2560 1280 2560 1302.8C2560 1325.7 2560 1348.3 2560 1371.2C2560 1394 2560 1417 2560 1428.5L2560 1440Z" fill="#ffc752"></path><path d="M2442 1440L2446.8 1428.5C2451.7 1417 2461.3 1394 2458 1371.2C2454.7 1348.3 2438.3 1325.7 2435.7 1302.8C2433 1280 2444 1257 2447 1234.2C2450 1211.3 2445 1188.7 2448.2 1165.8C2451.3 1143 2462.7 1120 2465.5 1097.2C2468.3 1074.3 2462.7 1051.7 2450.3 1028.8C2438 1006 2419 983 2420.2 960C2421.3 937 2442.7 914 2449.3 891.2C2456 868.3 2448 845.7 2447.5 822.8C2447 800 2454 777 2447.7 754.2C2441.3 731.3 2421.7 708.7 2412.3 685.8C2403 663 2404 640 2413.3 617.2C2422.7 594.3 2440.3 571.7 2442.8 548.8C2445.3 526 2432.7 503 2428.8 480C2425 457 2430 434 2434.2 411.2C2438.3 388.3 2441.7 365.7 2447.7 342.8C2453.7 320 2462.3 297 2456.7 274.2C2451 251.3 2431 228.7 2426.8 205.8C2422.7 183 2434.3 160 2437 137.2C2439.7 114.3 2433.3 91.7 2436.5 68.8C2439.7 46 2452.3 23 2458.7 11.5L2465 0L2560 0L2560 11.5C2560 23 2560 46 2560 68.8C2560 91.7 2560 114.3 2560 137.2C2560 160 2560 183 2560 205.8C2560 228.7 2560 251.3 2560 274.2C2560 297 2560 320 2560 342.8C2560 365.7 2560 388.3 2560 411.2C2560 434 2560 457 2560 480C2560 503 2560 526 2560 548.8C2560 571.7 2560 594.3 2560 617.2C2560 640 2560 663 2560 685.8C2560 708.7 2560 731.3 2560 754.2C2560 777 2560 800 2560 822.8C2560 845.7 2560 868.3 2560 891.2C2560 914 2560 937 2560 960C2560 983 2560 1006 2560 1028.8C2560 1051.7 2560 1074.3 2560 1097.2C2560 1120 2560 1143 2560 1165.8C2560 1188.7 2560 1211.3 2560 1234.2C2560 1257 2560 1280 2560 1302.8C2560 1325.7 2560 1348.3 2560 1371.2C2560 1394 2560 1417 2560 1428.5L2560 1440Z" fill="#ffa547"></path><path d="M2449 1440L2459.5 1428.5C2470 1417 2491 1394 2500.7 1371.2C2510.3 1348.3 2508.7 1325.7 2503.7 1302.8C2498.7 1280 2490.3 1257 2488.2 1234.2C2486 1211.3 2490 1188.7 2492.8 1165.8C2495.7 1143 2497.3 1120 2488.8 1097.2C2480.3 1074.3 2461.7 1051.7 2454.2 1028.8C2446.7 1006 2450.3 983 2452.3 960C2454.3 937 2454.7 914 2455.8 891.2C2457 868.3 2459 845.7 2468.3 822.8C2477.7 800 2494.3 777 2494 754.2C2493.7 731.3 2476.3 708.7 2475.2 685.8C2474 663 2489 640 2495.8 617.2C2502.7 594.3 2501.3 571.7 2493.5 548.8C2485.7 526 2471.3 503 2472.3 480C2473.3 457 2489.7 434 2497.2 411.2C2504.7 388.3 2503.3 365.7 2495.5 342.8C2487.7 320 2473.3 297 2467.2 274.2C2461 251.3 2463 228.7 2470.7 205.8C2478.3 183 2491.7 160 2498.3 137.2C2505 114.3 2505 91.7 2504.8 68.8C2504.7 46 2504.3 23 2504.2 11.5L2504 0L2560 0L2560 11.5C2560 23 2560 46 2560 68.8C2560 91.7 2560 114.3 2560 137.2C2560 160 2560 183 2560 205.8C2560 228.7 2560 251.3 2560 274.2C2560 297 2560 320 2560 342.8C2560 365.7 2560 388.3 2560 411.2C2560 434 2560 457 2560 480C2560 503 2560 526 2560 548.8C2560 571.7 2560 594.3 2560 617.2C2560 640 2560 663 2560 685.8C2560 708.7 2560 731.3 2560 754.2C2560 777 2560 800 2560 822.8C2560 845.7 2560 868.3 2560 891.2C2560 914 2560 937 2560 960C2560 983 2560 1006 2560 1028.8C2560 1051.7 2560 1074.3 2560 1097.2C2560 1120 2560 1143 2560 1165.8C2560 1188.7 2560 1211.3 2560 1234.2C2560 1257 2560 1280 2560 1302.8C2560 1325.7 2560 1348.3 2560 1371.2C2560 1394 2560 1417 2560 1428.5L2560 1440Z" fill="#fe8247"></path><path d="M2537 1440L2538.8 1428.5C2540.7 1417 2544.3 1394 2541.3 1371.2C2538.3 1348.3 2528.7 1325.7 2528.8 1302.8C2529 1280 2539 1257 2540.5 1234.2C2542 1211.3 2535 1188.7 2531.7 1165.8C2528.3 1143 2528.7 1120 2524 1097.2C2519.3 1074.3 2509.7 1051.7 2511.3 1028.8C2513 1006 2526 983 2525.3 960C2524.7 937 2510.3 914 2508.3 891.2C2506.3 868.3 2516.7 845.7 2522.5 822.8C2528.3 800 2529.7 777 2526.2 754.2C2522.7 731.3 2514.3 708.7 2511.5 685.8C2508.7 663 2511.3 640 2516.7 617.2C2522 594.3 2530 571.7 2529.2 548.8C2528.3 526 2518.7 503 2512.7 480C2506.7 457 2504.3 434 2500.8 411.2C2497.3 388.3 2492.7 365.7 2492.2 342.8C2491.7 320 2495.3 297 2495 274.2C2494.7 251.3 2490.3 228.7 2489.8 205.8C2489.3 183 2492.7 160 2492.7 137.2C2492.7 114.3 2489.3 91.7 2498.3 68.8C2507.3 46 2528.7 23 2539.3 11.5L2550 0L2560 0L2560 11.5C2560 23 2560 46 2560 68.8C2560 91.7 2560 114.3 2560 137.2C2560 160 2560 183 2560 205.8C2560 228.7 2560 251.3 2560 274.2C2560 297 2560 320 2560 342.8C2560 365.7 2560 388.3 2560 411.2C2560 434 2560 457 2560 480C2560 503 2560 526 2560 548.8C2560 571.7 2560 594.3 2560 617.2C2560 640 2560 663 2560 685.8C2560 708.7 2560 731.3 2560 754.2C2560 777 2560 800 2560 822.8C2560 845.7 2560 868.3 2560 891.2C2560 914 2560 937 2560 960C2560 983 2560 1006 2560 1028.8C2560 1051.7 2560 1074.3 2560 1097.2C2560 1120 2560 1143 2560 1165.8C2560 1188.7 2560 1211.3 2560 1234.2C2560 1257 2560 1280 2560 1302.8C2560 1325.7 2560 1348.3 2560 1371.2C2560 1394 2560 1417 2560 1428.5L2560 1440Z" fill="#f75e4f"></path></svg>