<svg id="visual" viewBox="0 0 2560 1440" width="2560" height="1440" xmlns="http://www.w3.org/2000/svg" xmlns:xlink="http://www.w3.org/1999/xlink" version="1.1"><path d="M385 0L354.7 48C324.3 96 263.7 192 245.2 288C226.7 384 250.3 480 262 576C273.7 672 273.3 768 263 864C252.7 960 232.3 1056 248.8 1152C265.3 1248 318.7 1344 345.3 1392L372 1440L0 1440L0 1392C0 1344 0 1248 0 1152C0 1056 0 960 0 864C0 768 0 672 0 576C0 480 0 384 0 288C0 192 0 96 0 48L0 0Z" fill="#fae869"></path><path d="M201 0L222.2 48C243.3 96 285.7 192 291.2 288C296.7 384 265.3 480 257.3 576C249.3 672 264.7 768 253.7 864C242.7 960 205.3 1056 196.7 1152C188 1248 208 1344 218 1392L228 1440L0 1440L0 1392C0 1344 0 1248 0 1152C0 1056 0 960 0 864C0 768 0 672 0 576C0 480 0 384 0 288C0 192 0 96 0 48L0 0Z" fill="#ffc752"></path><path d="M144 0L148.3 48C152.7 96 161.3 192 160.3 288C159.3 384 148.7 480 146.7 576C144.7 672 151.3 768 159.3 864C167.3 960 176.7 1056 178.5 1152C180.3 1248 174.7 1344 171.8 1392L169 1440L0 1440L0 1392C0 1344 0 1248 0 1152C0 1056 0 960 0 864C0 768 0 672 0 576C0 480 0 384 0 288C0 192 0 96 0 48L0 0Z" fill="#ffa547"></path><path d="M82 0L85.7 48C89.3 96 96.7 192 110 288C123.3 384 142.7 480 141 576C139.3 672 116.7 768 104.3 864C92 960 90 1056 86.7 1152C83.3 1248 78.7 1344 76.3 1392L74 1440L0 1440L0 1392C0 1344 0 1248 0 1152C0 1056 0 960 0 864C0 768 0 672 0 576C0 480 0 384 0 288C0 192 0 96 0 48L0 0Z" fill="#fe8247"></path><path d="M135 0L129 48C123 96 111 192 98.8 288C86.7 384 74.3 480 68.3 576C62.3 672 62.7 768 67.2 864C71.7 960 80.3 1056 84.7 1152C89 1248 89 1344 89 1392L89 1440L0 1440L0 1392C0 1344 0 1248 0 1152C0 1056 0 960 0 864C0 768 0 672 0 576C0 480 0 384 0 288C0 192 0 96 0 48L0 0Z" fill="#f75e4f"></path></svg>