<svg id="visual" viewBox="0 0 2560 1440" width="2560" height="1440" xmlns="http://www.w3.org/2000/svg" xmlns:xlink="http://www.w3.org/1999/xlink" version="1.1"><path d="M177 0L171.3 48C165.7 96 154.3 192 156.5 288C158.7 384 174.3 480 186.2 576C198 672 206 768 198.3 864C190.7 960 167.3 1056 151.5 1152C135.7 1248 127.3 1344 123.2 1392L119 1440L0 1440L0 1392C0 1344 0 1248 0 1152C0 1056 0 960 0 864C0 768 0 672 0 576C0 480 0 384 0 288C0 192 0 96 0 48L0 0Z" fill="#fae869"></path><path d="M176 0L173.3 48C170.7 96 165.3 192 157.5 288C149.7 384 139.3 480 142.7 576C146 672 163 768 168.3 864C173.7 960 167.3 1056 161.8 1152C156.3 1248 151.7 1344 149.3 1392L147 1440L0 1440L0 1392C0 1344 0 1248 0 1152C0 1056 0 960 0 864C0 768 0 672 0 576C0 480 0 384 0 288C0 192 0 96 0 48L0 0Z" fill="#ffc752"></path><path d="M132 0L120.5 48C109 96 86 192 82.7 288C79.3 384 95.7 480 107.8 576C120 672 128 768 120.7 864C113.3 960 90.7 1056 91 1152C91.3 1248 114.7 1344 126.3 1392L138 1440L0 1440L0 1392C0 1344 0 1248 0 1152C0 1056 0 960 0 864C0 768 0 672 0 576C0 480 0 384 0 288C0 192 0 96 0 48L0 0Z" fill="#ffa547"></path><path d="M67 0L71.8 48C76.7 96 86.3 192 87.7 288C89 384 82 480 75 576C68 672 61 768 59.3 864C57.7 960 61.3 1056 66 1152C70.7 1248 76.3 1344 79.2 1392L82 1440L0 1440L0 1392C0 1344 0 1248 0 1152C0 1056 0 960 0 864C0 768 0 672 0 576C0 480 0 384 0 288C0 192 0 96 0 48L0 0Z" fill="#fe8247"></path><path d="M51 0L47.2 48C43.3 96 35.7 192 32.7 288C29.7 384 31.3 480 38.2 576C45 672 57 768 59.3 864C61.7 960 54.3 1056 52.2 1152C50 1248 53 1344 54.5 1392L56 1440L0 1440L0 1392C0 1344 0 1248 0 1152C0 1056 0 960 0 864C0 768 0 672 0 576C0 480 0 384 0 288C0 192 0 96 0 48L0 0Z" fill="#f75e4f"></path></svg>