<svg id="visual" viewBox="0 0 1600 900" width="1600" height="900" xmlns="http://www.w3.org/2000/svg" xmlns:xlink="http://www.w3.org/1999/xlink" version="1.1"><path d="M1507 900L1515.7 883.3C1524.3 866.7 1541.7 833.3 1549.7 800C1557.7 766.7 1556.3 733.3 1552 700C1547.7 666.7 1540.3 633.3 1527.7 600C1515 566.7 1497 533.3 1500.3 500C1503.7 466.7 1528.3 433.3 1532.3 400C1536.3 366.7 1519.7 333.3 1507 300C1494.3 266.7 1485.7 233.3 1484.7 200C1483.7 166.7 1490.3 133.3 1504.5 100C1518.7 66.7 1540.3 33.3 1551.2 16.7L1562 0L1600 0L1600 16.7C1600 33.3 1600 66.7 1600 100C1600 133.3 1600 166.7 1600 200C1600 233.3 1600 266.7 1600 300C1600 333.3 1600 366.7 1600 400C1600 433.3 1600 466.7 1600 500C1600 533.3 1600 566.7 1600 600C1600 633.3 1600 666.7 1600 700C1600 733.3 1600 766.7 1600 800C1600 833.3 1600 866.7 1600 883.3L1600 900Z" fill="#fae869"></path><path d="M1570 900L1561 883.3C1552 866.7 1534 833.3 1528.8 800C1523.7 766.7 1531.3 733.3 1526.8 700C1522.3 666.7 1505.7 633.3 1507 600C1508.3 566.7 1527.7 533.3 1531.3 500C1535 466.7 1523 433.3 1514.7 400C1506.3 366.7 1501.7 333.3 1507.8 300C1514 266.7 1531 233.3 1540.7 200C1550.3 166.7 1552.7 133.3 1548.5 100C1544.3 66.7 1533.7 33.3 1528.3 16.7L1523 0L1600 0L1600 16.7C1600 33.3 1600 66.7 1600 100C1600 133.3 1600 166.7 1600 200C1600 233.3 1600 266.7 1600 300C1600 333.3 1600 366.7 1600 400C1600 433.3 1600 466.7 1600 500C1600 533.3 1600 566.7 1600 600C1600 633.3 1600 666.7 1600 700C1600 733.3 1600 766.7 1600 800C1600 833.3 1600 866.7 1600 883.3L1600 900Z" fill="#ffc752"></path><path d="M1514 900L1518.3 883.3C1522.7 866.7 1531.3 833.3 1535.8 800C1540.3 766.7 1540.7 733.3 1540.7 700C1540.7 666.7 1540.3 633.3 1537.7 600C1535 566.7 1530 533.3 1525 500C1520 466.7 1515 433.3 1522.5 400C1530 366.7 1550 333.3 1559 300C1568 266.7 1566 233.3 1566.3 200C1566.7 166.7 1569.3 133.3 1571.7 100C1574 66.7 1576 33.3 1577 16.7L1578 0L1600 0L1600 16.7C1600 33.3 1600 66.7 1600 100C1600 133.3 1600 166.7 1600 200C1600 233.3 1600 266.7 1600 300C1600 333.3 1600 366.7 1600 400C1600 433.3 1600 466.7 1600 500C1600 533.3 1600 566.7 1600 600C1600 633.3 1600 666.7 1600 700C1600 733.3 1600 766.7 1600 800C1600 833.3 1600 866.7 1600 883.3L1600 900Z" fill="#ffa547"></path><path d="M1549 900L1547.7 883.3C1546.3 866.7 1543.7 833.3 1546.7 800C1549.7 766.7 1558.3 733.3 1561.8 700C1565.3 666.7 1563.7 633.3 1563.8 600C1564 566.7 1566 533.3 1569.3 500C1572.7 466.7 1577.3 433.3 1573.8 400C1570.3 366.7 1558.7 333.3 1551.5 300C1544.3 266.7 1541.7 233.3 1546.7 200C1551.7 166.7 1564.3 133.3 1564.3 100C1564.3 66.7 1551.7 33.3 1545.3 16.7L1539 0L1600 0L1600 16.7C1600 33.3 1600 66.7 1600 100C1600 133.3 1600 166.7 1600 200C1600 233.3 1600 266.7 1600 300C1600 333.3 1600 366.7 1600 400C1600 433.3 1600 466.7 1600 500C1600 533.3 1600 566.7 1600 600C1600 633.3 1600 666.7 1600 700C1600 733.3 1600 766.7 1600 800C1600 833.3 1600 866.7 1600 883.3L1600 900Z" fill="#fe8247"></path><path d="M1578 900L1580.2 883.3C1582.3 866.7 1586.7 833.3 1587 800C1587.3 766.7 1583.7 733.3 1583.8 700C1584 666.7 1588 633.3 1588.2 600C1588.3 566.7 1584.7 533.3 1581 500C1577.3 466.7 1573.7 433.3 1570.7 400C1567.7 366.7 1565.3 333.3 1565 300C1564.7 266.7 1566.3 233.3 1570.5 200C1574.7 166.7 1581.3 133.3 1583.5 100C1585.7 66.7 1583.3 33.3 1582.2 16.7L1581 0L1600 0L1600 16.7C1600 33.3 1600 66.7 1600 100C1600 133.3 1600 166.7 1600 200C1600 233.3 1600 266.7 1600 300C1600 333.3 1600 366.7 1600 400C1600 433.3 1600 466.7 1600 500C1600 533.3 1600 566.7 1600 600C1600 633.3 1600 666.7 1600 700C1600 733.3 1600 766.7 1600 800C1600 833.3 1600 866.7 1600 883.3L1600 900Z" fill="#f75e4f"></path></svg>