<svg id="visual" viewBox="0 0 2560 1440" width="2560" height="1440" xmlns="http://www.w3.org/2000/svg" xmlns:xlink="http://www.w3.org/1999/xlink" version="1.1"><rect x="0" y="0" width="2560" height="1440" fill="#ececec"></rect><path d="M0 214L366 198L731 198L1097 165L1463 159L1829 188L2194 242L2560 193L2560 0L2194 0L1829 0L1463 0L1097 0L731 0L366 0L0 0Z" fill="#fae869"></path><path d="M0 188L366 200L731 139L1097 149L1463 207L1829 163L2194 147L2560 157L2560 0L2194 0L1829 0L1463 0L1097 0L731 0L366 0L0 0Z" fill="#fcda5e"></path><path d="M0 116L366 170L731 145L1097 165L1463 137L1829 135L2194 137L2560 145L2560 0L2194 0L1829 0L1463 0L1097 0L731 0L366 0L0 0Z" fill="#fecc55"></path><path d="M0 157L366 127L731 110L1097 141L1463 142L1829 132L2194 127L2560 156L2560 0L2194 0L1829 0L1463 0L1097 0L731 0L366 0L0 0Z" fill="#ffbd4e"></path><path d="M0 108L366 117L731 109L1097 82L1463 105L1829 107L2194 124L2560 82L2560 0L2194 0L1829 0L1463 0L1097 0L731 0L366 0L0 0Z" fill="#ffaf49"></path><path d="M0 76L366 65L731 86L1097 58L1463 79L1829 85L2194 98L2560 77L2560 0L2194 0L1829 0L1463 0L1097 0L731 0L366 0L0 0Z" fill="#ffa046"></path><path d="M0 74L366 60L731 51L1097 59L1463 55L1829 40L2194 73L2560 48L2560 0L2194 0L1829 0L1463 0L1097 0L731 0L366 0L0 0Z" fill="#ff9146"></path><path d="M0 38L366 47L731 46L1097 21L1463 35L1829 18L2194 41L2560 19L2560 0L2194 0L1829 0L1463 0L1097 0L731 0L366 0L0 0Z" fill="#fe8247"></path></svg>