<svg id="visual" viewBox="0 0 2560 1440" width="2560" height="1440" xmlns="http://www.w3.org/2000/svg" xmlns:xlink="http://www.w3.org/1999/xlink" version="1.1"><path d="M0 321L366 297L731 298L1097 248L1463 239L1829 282L2194 363L2560 290L2560 0L2194 0L1829 0L1463 0L1097 0L731 0L366 0L0 0Z" fill="#fae869"></path><path d="M0 283L366 300L731 210L1097 223L1463 310L1829 245L2194 221L2560 236L2560 0L2194 0L1829 0L1463 0L1097 0L731 0L366 0L0 0Z" fill="#fcda5e"></path><path d="M0 174L366 256L731 218L1097 248L1463 206L1829 203L2194 205L2560 218L2560 0L2194 0L1829 0L1463 0L1097 0L731 0L366 0L0 0Z" fill="#fecc55"></path><path d="M0 236L366 192L731 165L1097 212L1463 213L1829 198L2194 191L2560 235L2560 0L2194 0L1829 0L1463 0L1097 0L731 0L366 0L0 0Z" fill="#ffbd4e"></path><path d="M0 162L366 176L731 165L1097 124L1463 157L1829 161L2194 186L2560 124L2560 0L2194 0L1829 0L1463 0L1097 0L731 0L366 0L0 0Z" fill="#ffaf49"></path><path d="M0 114L366 98L731 129L1097 87L1463 119L1829 127L2194 147L2560 116L2560 0L2194 0L1829 0L1463 0L1097 0L731 0L366 0L0 0Z" fill="#ffa046"></path><path d="M0 112L366 91L731 77L1097 88L1463 83L1829 60L2194 110L2560 72L2560 0L2194 0L1829 0L1463 0L1097 0L731 0L366 0L0 0Z" fill="#ff9146"></path><path d="M0 58L366 70L731 69L1097 32L1463 53L1829 28L2194 62L2560 29L2560 0L2194 0L1829 0L1463 0L1097 0L731 0L366 0L0 0Z" fill="#fe8247"></path></svg>