<svg id="visual" viewBox="0 0 1600 900" width="1600" height="900" xmlns="http://www.w3.org/2000/svg" xmlns:xlink="http://www.w3.org/1999/xlink" version="1.1"><path d="M112 0L107.3 16.7C102.7 33.3 93.3 66.7 89.8 100C86.3 133.3 88.7 166.7 94.7 200C100.7 233.3 110.3 266.7 113.7 300C117 333.3 114 366.7 116 400C118 433.3 125 466.7 117.8 500C110.7 533.3 89.3 566.7 79 600C68.7 633.3 69.3 666.7 70 700C70.7 733.3 71.3 766.7 78.8 800C86.3 833.3 100.7 866.7 107.8 883.3L115 900L0 900L0 883.3C0 866.7 0 833.3 0 800C0 766.7 0 733.3 0 700C0 666.7 0 633.3 0 600C0 566.7 0 533.3 0 500C0 466.7 0 433.3 0 400C0 366.7 0 333.3 0 300C0 266.7 0 233.3 0 200C0 166.7 0 133.3 0 100C0 66.7 0 33.3 0 16.7L0 0Z" fill="#fae869"></path><path d="M88 0L91.8 16.7C95.7 33.3 103.3 66.7 102.7 100C102 133.3 93 166.7 83.5 200C74 233.3 64 266.7 64.5 300C65 333.3 76 366.7 77.7 400C79.3 433.3 71.7 466.7 69.2 500C66.7 533.3 69.3 566.7 69.8 600C70.3 633.3 68.7 666.7 64.7 700C60.7 733.3 54.3 766.7 54.7 800C55 833.3 62 866.7 65.5 883.3L69 900L0 900L0 883.3C0 866.7 0 833.3 0 800C0 766.7 0 733.3 0 700C0 666.7 0 633.3 0 600C0 566.7 0 533.3 0 500C0 466.7 0 433.3 0 400C0 366.7 0 333.3 0 300C0 266.7 0 233.3 0 200C0 166.7 0 133.3 0 100C0 66.7 0 33.3 0 16.7L0 0Z" fill="#ffc752"></path><path d="M88 0L88.3 16.7C88.7 33.3 89.3 66.7 82 100C74.7 133.3 59.3 166.7 53.3 200C47.3 233.3 50.7 266.7 58.3 300C66 333.3 78 366.7 81.8 400C85.7 433.3 81.3 466.7 72.7 500C64 533.3 51 566.7 53.2 600C55.3 633.3 72.7 666.7 76.8 700C81 733.3 72 766.7 63 800C54 833.3 45 866.7 40.5 883.3L36 900L0 900L0 883.3C0 866.7 0 833.3 0 800C0 766.7 0 733.3 0 700C0 666.7 0 633.3 0 600C0 566.7 0 533.3 0 500C0 466.7 0 433.3 0 400C0 366.7 0 333.3 0 300C0 266.7 0 233.3 0 200C0 166.7 0 133.3 0 100C0 66.7 0 33.3 0 16.7L0 0Z" fill="#ffa547"></path><path d="M29 0L31.5 16.7C34 33.3 39 66.7 43.2 100C47.3 133.3 50.7 166.7 47.7 200C44.7 233.3 35.3 266.7 32.3 300C29.3 333.3 32.7 366.7 36 400C39.3 433.3 42.7 466.7 43 500C43.3 533.3 40.7 566.7 40.8 600C41 633.3 44 666.7 44.5 700C45 733.3 43 766.7 41.7 800C40.3 833.3 39.7 866.7 39.3 883.3L39 900L0 900L0 883.3C0 866.7 0 833.3 0 800C0 766.7 0 733.3 0 700C0 666.7 0 633.3 0 600C0 566.7 0 533.3 0 500C0 466.7 0 433.3 0 400C0 366.7 0 333.3 0 300C0 266.7 0 233.3 0 200C0 166.7 0 133.3 0 100C0 66.7 0 33.3 0 16.7L0 0Z" fill="#fe8247"></path><path d="M20 0L20.8 16.7C21.7 33.3 23.3 66.7 24.8 100C26.3 133.3 27.7 166.7 30.7 200C33.7 233.3 38.3 266.7 37.5 300C36.7 333.3 30.3 366.7 25.3 400C20.3 433.3 16.7 466.7 16 500C15.3 533.3 17.7 566.7 17.8 600C18 633.3 16 666.7 18.8 700C21.7 733.3 29.3 766.7 31.7 800C34 833.3 31 866.7 29.5 883.3L28 900L0 900L0 883.3C0 866.7 0 833.3 0 800C0 766.7 0 733.3 0 700C0 666.7 0 633.3 0 600C0 566.7 0 533.3 0 500C0 466.7 0 433.3 0 400C0 366.7 0 333.3 0 300C0 266.7 0 233.3 0 200C0 166.7 0 133.3 0 100C0 66.7 0 33.3 0 16.7L0 0Z" fill="#f75e4f"></path></svg>