<svg id="visual" viewBox="0 0 2560 1440" width="2560" height="1440" xmlns="http://www.w3.org/2000/svg" xmlns:xlink="http://www.w3.org/1999/xlink" version="1.1"><path d="M2355 1440L2360.7 1425.8C2366.3 1411.7 2377.7 1383.3 2382.8 1355.2C2388 1327 2387 1299 2383.3 1270.8C2379.7 1242.7 2373.3 1214.3 2376.5 1186C2379.7 1157.7 2392.3 1129.3 2389.8 1101C2387.3 1072.7 2369.7 1044.3 2363.7 1016.2C2357.7 988 2363.3 960 2366.8 931.8C2370.3 903.7 2371.7 875.3 2377.2 847C2382.7 818.7 2392.3 790.3 2392.2 762.2C2392 734 2382 706 2376.2 677.8C2370.3 649.7 2368.7 621.3 2372.3 593C2376 564.7 2385 536.3 2385.3 508.2C2385.7 480 2377.3 452 2380 423.8C2382.7 395.7 2396.3 367.3 2403.2 339C2410 310.7 2410 282.3 2408.7 254C2407.3 225.7 2404.7 197.3 2395.7 169.2C2386.7 141 2371.3 113 2372.5 84.8C2373.7 56.7 2391.3 28.3 2400.2 14.2L2409 0L2560 0L2560 14.2C2560 28.3 2560 56.7 2560 84.8C2560 113 2560 141 2560 169.2C2560 197.3 2560 225.7 2560 254C2560 282.3 2560 310.7 2560 339C2560 367.3 2560 395.7 2560 423.8C2560 452 2560 480 2560 508.2C2560 536.3 2560 564.7 2560 593C2560 621.3 2560 649.7 2560 677.8C2560 706 2560 734 2560 762.2C2560 790.3 2560 818.7 2560 847C2560 875.3 2560 903.7 2560 931.8C2560 960 2560 988 2560 1016.2C2560 1044.3 2560 1072.7 2560 1101C2560 1129.3 2560 1157.7 2560 1186C2560 1214.3 2560 1242.7 2560 1270.8C2560 1299 2560 1327 2560 1355.2C2560 1383.3 2560 1411.7 2560 1425.8L2560 1440Z" fill="#fae869"></path><path d="M2436 1440L2428.8 1425.8C2421.7 1411.7 2407.3 1383.3 2407.7 1355.2C2408 1327 2423 1299 2429.7 1270.8C2436.3 1242.7 2434.7 1214.3 2427.7 1186C2420.7 1157.7 2408.3 1129.3 2401 1101C2393.7 1072.7 2391.3 1044.3 2394.7 1016.2C2398 988 2407 960 2411.2 931.8C2415.3 903.7 2414.7 875.3 2417.5 847C2420.3 818.7 2426.7 790.3 2426.7 762.2C2426.7 734 2420.3 706 2416.8 677.8C2413.3 649.7 2412.7 621.3 2416.3 593C2420 564.7 2428 536.3 2427.8 508.2C2427.7 480 2419.3 452 2415.5 423.8C2411.7 395.7 2412.3 367.3 2414.5 339C2416.7 310.7 2420.3 282.3 2421.2 254C2422 225.7 2420 197.3 2421.2 169.2C2422.3 141 2426.7 113 2429 84.8C2431.3 56.7 2431.7 28.3 2431.8 14.2L2432 0L2560 0L2560 14.2C2560 28.3 2560 56.7 2560 84.8C2560 113 2560 141 2560 169.2C2560 197.3 2560 225.7 2560 254C2560 282.3 2560 310.7 2560 339C2560 367.3 2560 395.7 2560 423.8C2560 452 2560 480 2560 508.2C2560 536.3 2560 564.7 2560 593C2560 621.3 2560 649.7 2560 677.8C2560 706 2560 734 2560 762.2C2560 790.3 2560 818.7 2560 847C2560 875.3 2560 903.7 2560 931.8C2560 960 2560 988 2560 1016.2C2560 1044.3 2560 1072.7 2560 1101C2560 1129.3 2560 1157.7 2560 1186C2560 1214.3 2560 1242.7 2560 1270.8C2560 1299 2560 1327 2560 1355.2C2560 1383.3 2560 1411.7 2560 1425.8L2560 1440Z" fill="#ffc752"></path><path d="M2473 1440L2468 1425.8C2463 1411.7 2453 1383.3 2447.8 1355.2C2442.7 1327 2442.3 1299 2446.8 1270.8C2451.3 1242.7 2460.7 1214.3 2464.7 1186C2468.7 1157.7 2467.3 1129.3 2464.2 1101C2461 1072.7 2456 1044.3 2455.3 1016.2C2454.7 988 2458.3 960 2456.8 931.8C2455.3 903.7 2448.7 875.3 2446.8 847C2445 818.7 2448 790.3 2446 762.2C2444 734 2437 706 2439.5 677.8C2442 649.7 2454 621.3 2457.8 593C2461.7 564.7 2457.3 536.3 2456 508.2C2454.7 480 2456.3 452 2452.7 423.8C2449 395.7 2440 367.3 2441.3 339C2442.7 310.7 2454.3 282.3 2458 254C2461.7 225.7 2457.3 197.3 2454.8 169.2C2452.3 141 2451.7 113 2454.8 84.8C2458 56.7 2465 28.3 2468.5 14.2L2472 0L2560 0L2560 14.2C2560 28.3 2560 56.7 2560 84.8C2560 113 2560 141 2560 169.2C2560 197.3 2560 225.7 2560 254C2560 282.3 2560 310.7 2560 339C2560 367.3 2560 395.7 2560 423.8C2560 452 2560 480 2560 508.2C2560 536.3 2560 564.7 2560 593C2560 621.3 2560 649.7 2560 677.8C2560 706 2560 734 2560 762.2C2560 790.3 2560 818.7 2560 847C2560 875.3 2560 903.7 2560 931.8C2560 960 2560 988 2560 1016.2C2560 1044.3 2560 1072.7 2560 1101C2560 1129.3 2560 1157.7 2560 1186C2560 1214.3 2560 1242.7 2560 1270.8C2560 1299 2560 1327 2560 1355.2C2560 1383.3 2560 1411.7 2560 1425.8L2560 1440Z" fill="#ffa547"></path><path d="M2497 1440L2496.3 1425.8C2495.7 1411.7 2494.3 1383.3 2493 1355.2C2491.7 1327 2490.3 1299 2486.5 1270.8C2482.7 1242.7 2476.3 1214.3 2474.2 1186C2472 1157.7 2474 1129.3 2475.8 1101C2477.7 1072.7 2479.3 1044.3 2479.5 1016.2C2479.7 988 2478.3 960 2479.8 931.8C2481.3 903.7 2485.7 875.3 2487.8 847C2490 818.7 2490 790.3 2486 762.2C2482 734 2474 706 2474.8 677.8C2475.7 649.7 2485.3 621.3 2491.3 593C2497.3 564.7 2499.7 536.3 2499.2 508.2C2498.7 480 2495.3 452 2491.7 423.8C2488 395.7 2484 367.3 2481.5 339C2479 310.7 2478 282.3 2478.8 254C2479.7 225.7 2482.3 197.3 2484.3 169.2C2486.3 141 2487.7 113 2489.5 84.8C2491.3 56.7 2493.7 28.3 2494.8 14.2L2496 0L2560 0L2560 14.2C2560 28.3 2560 56.7 2560 84.8C2560 113 2560 141 2560 169.2C2560 197.3 2560 225.7 2560 254C2560 282.3 2560 310.7 2560 339C2560 367.3 2560 395.7 2560 423.8C2560 452 2560 480 2560 508.2C2560 536.3 2560 564.7 2560 593C2560 621.3 2560 649.7 2560 677.8C2560 706 2560 734 2560 762.2C2560 790.3 2560 818.7 2560 847C2560 875.3 2560 903.7 2560 931.8C2560 960 2560 988 2560 1016.2C2560 1044.3 2560 1072.7 2560 1101C2560 1129.3 2560 1157.7 2560 1186C2560 1214.3 2560 1242.7 2560 1270.8C2560 1299 2560 1327 2560 1355.2C2560 1383.3 2560 1411.7 2560 1425.8L2560 1440Z" fill="#fe8247"></path><path d="M2503 1440L2507.2 1425.8C2511.3 1411.7 2519.7 1383.3 2521.8 1355.2C2524 1327 2520 1299 2519.7 1270.8C2519.3 1242.7 2522.7 1214.3 2525 1186C2527.3 1157.7 2528.7 1129.3 2526.3 1101C2524 1072.7 2518 1044.3 2513.3 1016.2C2508.7 988 2505.3 960 2507 931.8C2508.7 903.7 2515.3 875.3 2517.3 847C2519.3 818.7 2516.7 790.3 2513.5 762.2C2510.3 734 2506.7 706 2508 677.8C2509.3 649.7 2515.7 621.3 2517.8 593C2520 564.7 2518 536.3 2518.7 508.2C2519.3 480 2522.7 452 2521.5 423.8C2520.3 395.7 2514.7 367.3 2513.5 339C2512.3 310.7 2515.7 282.3 2515.5 254C2515.3 225.7 2511.7 197.3 2508.8 169.2C2506 141 2504 113 2507.3 84.8C2510.7 56.7 2519.3 28.3 2523.7 14.2L2528 0L2560 0L2560 14.2C2560 28.3 2560 56.7 2560 84.8C2560 113 2560 141 2560 169.2C2560 197.3 2560 225.7 2560 254C2560 282.3 2560 310.7 2560 339C2560 367.3 2560 395.7 2560 423.8C2560 452 2560 480 2560 508.2C2560 536.3 2560 564.7 2560 593C2560 621.3 2560 649.7 2560 677.8C2560 706 2560 734 2560 762.2C2560 790.3 2560 818.7 2560 847C2560 875.3 2560 903.7 2560 931.8C2560 960 2560 988 2560 1016.2C2560 1044.3 2560 1072.7 2560 1101C2560 1129.3 2560 1157.7 2560 1186C2560 1214.3 2560 1242.7 2560 1270.8C2560 1299 2560 1327 2560 1355.2C2560 1383.3 2560 1411.7 2560 1425.8L2560 1440Z" fill="#f75e4f"></path></svg>