<svg id="visual" viewBox="0 0 2560 1440" width="2560" height="1440" xmlns="http://www.w3.org/2000/svg" xmlns:xlink="http://www.w3.org/1999/xlink" version="1.1"><path d="M2125 1440L2122.7 1405.7C2120.3 1371.3 2115.7 1302.7 2124.3 1234.2C2133 1165.7 2155 1097.3 2152.3 1028.8C2149.7 960.3 2122.3 891.7 2114.7 823C2107 754.3 2119 685.7 2114.2 617C2109.3 548.3 2087.7 479.7 2070.3 411.2C2053 342.7 2040 274.3 2040.3 205.8C2040.7 137.3 2054.3 68.7 2061.2 34.3L2068 0L2560 0L2560 34.3C2560 68.7 2560 137.3 2560 205.8C2560 274.3 2560 342.7 2560 411.2C2560 479.7 2560 548.3 2560 617C2560 685.7 2560 754.3 2560 823C2560 891.7 2560 960.3 2560 1028.8C2560 1097.3 2560 1165.7 2560 1234.2C2560 1302.7 2560 1371.3 2560 1405.7L2560 1440Z" fill="#ececec"></path><path d="M2249 1440L2244.7 1405.7C2240.3 1371.3 2231.7 1302.7 2226.8 1234.2C2222 1165.7 2221 1097.3 2211.3 1028.8C2201.7 960.3 2183.3 891.7 2173 823C2162.7 754.3 2160.3 685.7 2164.5 617C2168.7 548.3 2179.3 479.7 2195 411.2C2210.7 342.7 2231.3 274.3 2230 205.8C2228.7 137.3 2205.3 68.7 2193.7 34.3L2182 0L2560 0L2560 34.3C2560 68.7 2560 137.3 2560 205.8C2560 274.3 2560 342.7 2560 411.2C2560 479.7 2560 548.3 2560 617C2560 685.7 2560 754.3 2560 823C2560 891.7 2560 960.3 2560 1028.8C2560 1097.3 2560 1165.7 2560 1234.2C2560 1302.7 2560 1371.3 2560 1405.7L2560 1440Z" fill="#f3ebcd"></path><path d="M2220 1440L2237.8 1405.7C2255.7 1371.3 2291.3 1302.7 2291.3 1234.2C2291.3 1165.7 2255.7 1097.3 2243.2 1028.8C2230.7 960.3 2241.3 891.7 2243 823C2244.7 754.3 2237.3 685.7 2242.2 617C2247 548.3 2264 479.7 2271.2 411.2C2278.3 342.7 2275.7 274.3 2265.7 205.8C2255.7 137.3 2238.3 68.7 2229.7 34.3L2221 0L2560 0L2560 34.3C2560 68.7 2560 137.3 2560 205.8C2560 274.3 2560 342.7 2560 411.2C2560 479.7 2560 548.3 2560 617C2560 685.7 2560 754.3 2560 823C2560 891.7 2560 960.3 2560 1028.8C2560 1097.3 2560 1165.7 2560 1234.2C2560 1302.7 2560 1371.3 2560 1405.7L2560 1440Z" fill="#f7eaad"></path><path d="M2401 1440L2397 1405.7C2393 1371.3 2385 1302.7 2370.8 1234.2C2356.7 1165.7 2336.3 1097.3 2331.8 1028.8C2327.3 960.3 2338.7 891.7 2338.7 823C2338.7 754.3 2327.3 685.7 2320.7 617C2314 548.3 2312 479.7 2317.2 411.2C2322.3 342.7 2334.7 274.3 2338 205.8C2341.3 137.3 2335.7 68.7 2332.8 34.3L2330 0L2560 0L2560 34.3C2560 68.7 2560 137.3 2560 205.8C2560 274.3 2560 342.7 2560 411.2C2560 479.7 2560 548.3 2560 617C2560 685.7 2560 754.3 2560 823C2560 891.7 2560 960.3 2560 1028.8C2560 1097.3 2560 1165.7 2560 1234.2C2560 1302.7 2560 1371.3 2560 1405.7L2560 1440Z" fill="#f9e98c"></path><path d="M2405 1440L2406.2 1405.7C2407.3 1371.3 2409.7 1302.7 2409.3 1234.2C2409 1165.7 2406 1097.3 2408 1028.8C2410 960.3 2417 891.7 2418.2 823C2419.3 754.3 2414.7 685.7 2416 617C2417.3 548.3 2424.7 479.7 2429.5 411.2C2434.3 342.7 2436.7 274.3 2433.3 205.8C2430 137.3 2421 68.7 2416.5 34.3L2412 0L2560 0L2560 34.3C2560 68.7 2560 137.3 2560 205.8C2560 274.3 2560 342.7 2560 411.2C2560 479.7 2560 548.3 2560 617C2560 685.7 2560 754.3 2560 823C2560 891.7 2560 960.3 2560 1028.8C2560 1097.3 2560 1165.7 2560 1234.2C2560 1302.7 2560 1371.3 2560 1405.7L2560 1440Z" fill="#fae869"></path></svg>