<svg id="visual" viewBox="0 0 2560 1440" width="2560" height="1440" xmlns="http://www.w3.org/2000/svg" xmlns:xlink="http://www.w3.org/1999/xlink" version="1.1"><path d="M406 0L390.8 48C375.7 96 345.3 192 309.8 288C274.3 384 233.7 480 223.7 576C213.7 672 234.3 768 252.5 864C270.7 960 286.3 1056 275.8 1152C265.3 1248 228.7 1344 210.3 1392L192 1440L0 1440L0 1392C0 1344 0 1248 0 1152C0 1056 0 960 0 864C0 768 0 672 0 576C0 480 0 384 0 288C0 192 0 96 0 48L0 0Z" fill="#f75e4f"></path><path d="M240 0L233 48C226 96 212 192 220.7 288C229.3 384 260.7 480 282 576C303.3 672 314.7 768 303.8 864C293 960 260 1056 234.3 1152C208.7 1248 190.3 1344 181.2 1392L172 1440L0 1440L0 1392C0 1344 0 1248 0 1152C0 1056 0 960 0 864C0 768 0 672 0 576C0 480 0 384 0 288C0 192 0 96 0 48L0 0Z" fill="#fe8247"></path><path d="M195 0L194.3 48C193.7 96 192.3 192 199.8 288C207.3 384 223.7 480 212.3 576C201 672 162 768 162 864C162 960 201 1056 218.2 1152C235.3 1248 230.7 1344 228.3 1392L226 1440L0 1440L0 1392C0 1344 0 1248 0 1152C0 1056 0 960 0 864C0 768 0 672 0 576C0 480 0 384 0 288C0 192 0 96 0 48L0 0Z" fill="#ffa547"></path><path d="M179 0L175 48C171 96 163 192 161.8 288C160.7 384 166.3 480 163.7 576C161 672 150 768 155.2 864C160.3 960 181.7 1056 171 1152C160.3 1248 117.7 1344 96.3 1392L75 1440L0 1440L0 1392C0 1344 0 1248 0 1152C0 1056 0 960 0 864C0 768 0 672 0 576C0 480 0 384 0 288C0 192 0 96 0 48L0 0Z" fill="#ffc752"></path><path d="M95 0L93.3 48C91.7 96 88.3 192 88.3 288C88.3 384 91.7 480 88.5 576C85.3 672 75.7 768 74 864C72.3 960 78.7 1056 73.8 1152C69 1248 53 1344 45 1392L37 1440L0 1440L0 1392C0 1344 0 1248 0 1152C0 1056 0 960 0 864C0 768 0 672 0 576C0 480 0 384 0 288C0 192 0 96 0 48L0 0Z" fill="#fae869"></path></svg>