<svg id="visual" viewBox="0 0 2560 1440" width="2560" height="1440" xmlns="http://www.w3.org/2000/svg" xmlns:xlink="http://www.w3.org/1999/xlink" version="1.1"><path d="M299 0L292.7 34.3C286.3 68.7 273.7 137.3 279.3 205.8C285 274.3 309 342.7 315 411.2C321 479.7 309 548.3 304.2 617C299.3 685.7 301.7 754.3 293.5 823C285.3 891.7 266.7 960.3 266.3 1028.8C266 1097.3 284 1165.7 302.8 1234.2C321.7 1302.7 341.3 1371.3 351.2 1405.7L361 1440L0 1440L0 1405.7C0 1371.3 0 1302.7 0 1234.2C0 1165.7 0 1097.3 0 1028.8C0 960.3 0 891.7 0 823C0 754.3 0 685.7 0 617C0 548.3 0 479.7 0 411.2C0 342.7 0 274.3 0 205.8C0 137.3 0 68.7 0 34.3L0 0Z" fill="#ececec"></path><path d="M231 0L226.3 34.3C221.7 68.7 212.3 137.3 221.8 205.8C231.3 274.3 259.7 342.7 269.2 411.2C278.7 479.7 269.3 548.3 263.7 617C258 685.7 256 754.3 260.8 823C265.7 891.7 277.3 960.3 275.5 1028.8C273.7 1097.3 258.3 1165.7 256 1234.2C253.7 1302.7 264.3 1371.3 269.7 1405.7L275 1440L0 1440L0 1405.7C0 1371.3 0 1302.7 0 1234.2C0 1165.7 0 1097.3 0 1028.8C0 960.3 0 891.7 0 823C0 754.3 0 685.7 0 617C0 548.3 0 479.7 0 411.2C0 342.7 0 274.3 0 205.8C0 137.3 0 68.7 0 34.3L0 0Z" fill="#f8d2c1"></path><path d="M185 0L180 34.3C175 68.7 165 137.3 173 205.8C181 274.3 207 342.7 216.3 411.2C225.7 479.7 218.3 548.3 209.7 617C201 685.7 191 754.3 192 823C193 891.7 205 960.3 202 1028.8C199 1097.3 181 1165.7 176 1234.2C171 1302.7 179 1371.3 183 1405.7L187 1440L0 1440L0 1405.7C0 1371.3 0 1302.7 0 1234.2C0 1165.7 0 1097.3 0 1028.8C0 960.3 0 891.7 0 823C0 754.3 0 685.7 0 617C0 548.3 0 479.7 0 411.2C0 342.7 0 274.3 0 205.8C0 137.3 0 68.7 0 34.3L0 0Z" fill="#feb898"></path><path d="M130 0L131.3 34.3C132.7 68.7 135.3 137.3 134.7 205.8C134 274.3 130 342.7 135.8 411.2C141.7 479.7 157.3 548.3 161.2 617C165 685.7 157 754.3 147.2 823C137.3 891.7 125.7 960.3 121.8 1028.8C118 1097.3 122 1165.7 123.2 1234.2C124.3 1302.7 122.7 1371.3 121.8 1405.7L121 1440L0 1440L0 1405.7C0 1371.3 0 1302.7 0 1234.2C0 1165.7 0 1097.3 0 1028.8C0 960.3 0 891.7 0 823C0 754.3 0 685.7 0 617C0 548.3 0 479.7 0 411.2C0 342.7 0 274.3 0 205.8C0 137.3 0 68.7 0 34.3L0 0Z" fill="#ff9d70"></path><path d="M99 0L100.7 34.3C102.3 68.7 105.7 137.3 105.5 205.8C105.3 274.3 101.7 342.7 96.7 411.2C91.7 479.7 85.3 548.3 79.7 617C74 685.7 69 754.3 73.3 823C77.7 891.7 91.3 960.3 94.5 1028.8C97.7 1097.3 90.3 1165.7 85 1234.2C79.7 1302.7 76.3 1371.3 74.7 1405.7L73 1440L0 1440L0 1405.7C0 1371.3 0 1302.7 0 1234.2C0 1165.7 0 1097.3 0 1028.8C0 960.3 0 891.7 0 823C0 754.3 0 685.7 0 617C0 548.3 0 479.7 0 411.2C0 342.7 0 274.3 0 205.8C0 137.3 0 68.7 0 34.3L0 0Z" fill="#fe8247"></path></svg>