<svg id="visual" viewBox="0 0 2560 1440" width="2560" height="1440" xmlns="http://www.w3.org/2000/svg" xmlns:xlink="http://www.w3.org/1999/xlink" version="1.1"><path d="M728 0L694.2 34.3C660.3 68.7 592.7 137.3 581.3 205.8C570 274.3 615 342.7 616 411.2C617 479.7 574 548.3 575.3 617C576.7 685.7 622.3 754.3 635.5 823C648.7 891.7 629.3 960.3 607 1028.8C584.7 1097.3 559.3 1165.7 564 1234.2C568.7 1302.7 603.3 1371.3 620.7 1405.7L638 1440L0 1440L0 1405.7C0 1371.3 0 1302.7 0 1234.2C0 1165.7 0 1097.3 0 1028.8C0 960.3 0 891.7 0 823C0 754.3 0 685.7 0 617C0 548.3 0 479.7 0 411.2C0 342.7 0 274.3 0 205.8C0 137.3 0 68.7 0 34.3L0 0Z" fill="#ececec"></path><path d="M406 0L414.7 34.3C423.3 68.7 440.7 137.3 451.8 205.8C463 274.3 468 342.7 468.2 411.2C468.3 479.7 463.7 548.3 457.5 617C451.3 685.7 443.7 754.3 454.5 823C465.3 891.7 494.7 960.3 499.7 1028.8C504.7 1097.3 485.3 1165.7 479.5 1234.2C473.7 1302.7 481.3 1371.3 485.2 1405.7L489 1440L0 1440L0 1405.7C0 1371.3 0 1302.7 0 1234.2C0 1165.7 0 1097.3 0 1028.8C0 960.3 0 891.7 0 823C0 754.3 0 685.7 0 617C0 548.3 0 479.7 0 411.2C0 342.7 0 274.3 0 205.8C0 137.3 0 68.7 0 34.3L0 0Z" fill="#f7dac3"></path><path d="M470 0L465.2 34.3C460.3 68.7 450.7 137.3 426.3 205.8C402 274.3 363 342.7 365.3 411.2C367.7 479.7 411.3 548.3 433.5 617C455.7 685.7 456.3 754.3 434.8 823C413.3 891.7 369.7 960.3 351 1028.8C332.3 1097.3 338.7 1165.7 356.2 1234.2C373.7 1302.7 402.3 1371.3 416.7 1405.7L431 1440L0 1440L0 1405.7C0 1371.3 0 1302.7 0 1234.2C0 1165.7 0 1097.3 0 1028.8C0 960.3 0 891.7 0 823C0 754.3 0 685.7 0 617C0 548.3 0 479.7 0 411.2C0 342.7 0 274.3 0 205.8C0 137.3 0 68.7 0 34.3L0 0Z" fill="#fdc89a"></path><path d="M351 0L331.8 34.3C312.7 68.7 274.3 137.3 257.5 205.8C240.7 274.3 245.3 342.7 256.5 411.2C267.7 479.7 285.3 548.3 293.5 617C301.7 685.7 300.3 754.3 293.7 823C287 891.7 275 960.3 268.3 1028.8C261.7 1097.3 260.3 1165.7 257.2 1234.2C254 1302.7 249 1371.3 246.5 1405.7L244 1440L0 1440L0 1405.7C0 1371.3 0 1302.7 0 1234.2C0 1165.7 0 1097.3 0 1028.8C0 960.3 0 891.7 0 823C0 754.3 0 685.7 0 617C0 548.3 0 479.7 0 411.2C0 342.7 0 274.3 0 205.8C0 137.3 0 68.7 0 34.3L0 0Z" fill="#ffb672"></path><path d="M217 0L208.5 34.3C200 68.7 183 137.3 182.7 205.8C182.3 274.3 198.7 342.7 193.2 411.2C187.7 479.7 160.3 548.3 152.8 617C145.3 685.7 157.7 754.3 167.8 823C178 891.7 186 960.3 188.5 1028.8C191 1097.3 188 1165.7 177.3 1234.2C166.7 1302.7 148.3 1371.3 139.2 1405.7L130 1440L0 1440L0 1405.7C0 1371.3 0 1302.7 0 1234.2C0 1165.7 0 1097.3 0 1028.8C0 960.3 0 891.7 0 823C0 754.3 0 685.7 0 617C0 548.3 0 479.7 0 411.2C0 342.7 0 274.3 0 205.8C0 137.3 0 68.7 0 34.3L0 0Z" fill="#ffa547"></path></svg>