<svg id="visual" viewBox="0 0 2560 1440" width="2560" height="1440" xmlns="http://www.w3.org/2000/svg" xmlns:xlink="http://www.w3.org/1999/xlink" version="1.1"><path d="M2236 1440L2239.3 1405.7C2242.7 1371.3 2249.3 1302.7 2246.2 1234.2C2243 1165.7 2230 1097.3 2231.2 1028.8C2232.3 960.3 2247.7 891.7 2247.8 823C2248 754.3 2233 685.7 2241.5 617C2250 548.3 2282 479.7 2278 411.2C2274 342.7 2234 274.3 2225.3 205.8C2216.7 137.3 2239.3 68.7 2250.7 34.3L2262 0L2560 0L2560 34.3C2560 68.7 2560 137.3 2560 205.8C2560 274.3 2560 342.7 2560 411.2C2560 479.7 2560 548.3 2560 617C2560 685.7 2560 754.3 2560 823C2560 891.7 2560 960.3 2560 1028.8C2560 1097.3 2560 1165.7 2560 1234.2C2560 1302.7 2560 1371.3 2560 1405.7L2560 1440Z" fill="#ececec"></path><path d="M2360 1440L2355.7 1405.7C2351.3 1371.3 2342.7 1302.7 2337.5 1234.2C2332.3 1165.7 2330.7 1097.3 2328.3 1028.8C2326 960.3 2323 891.7 2319.8 823C2316.7 754.3 2313.3 685.7 2318.7 617C2324 548.3 2338 479.7 2334.2 411.2C2330.3 342.7 2308.7 274.3 2300.8 205.8C2293 137.3 2299 68.7 2302 34.3L2305 0L2560 0L2560 34.3C2560 68.7 2560 137.3 2560 205.8C2560 274.3 2560 342.7 2560 411.2C2560 479.7 2560 548.3 2560 617C2560 685.7 2560 754.3 2560 823C2560 891.7 2560 960.3 2560 1028.8C2560 1097.3 2560 1165.7 2560 1234.2C2560 1302.7 2560 1371.3 2560 1405.7L2560 1440Z" fill="#f3ebcd"></path><path d="M2408 1440L2406.5 1405.7C2405 1371.3 2402 1302.7 2390.7 1234.2C2379.3 1165.7 2359.7 1097.3 2347 1028.8C2334.3 960.3 2328.7 891.7 2328.3 823C2328 754.3 2333 685.7 2335.2 617C2337.3 548.3 2336.7 479.7 2334.3 411.2C2332 342.7 2328 274.3 2326.7 205.8C2325.3 137.3 2326.7 68.7 2327.3 34.3L2328 0L2560 0L2560 34.3C2560 68.7 2560 137.3 2560 205.8C2560 274.3 2560 342.7 2560 411.2C2560 479.7 2560 548.3 2560 617C2560 685.7 2560 754.3 2560 823C2560 891.7 2560 960.3 2560 1028.8C2560 1097.3 2560 1165.7 2560 1234.2C2560 1302.7 2560 1371.3 2560 1405.7L2560 1440Z" fill="#f7eaad"></path><path d="M2386 1440L2396.5 1405.7C2407 1371.3 2428 1302.7 2433.5 1234.2C2439 1165.7 2429 1097.3 2425.5 1028.8C2422 960.3 2425 891.7 2427.5 823C2430 754.3 2432 685.7 2426.2 617C2420.3 548.3 2406.7 479.7 2402.2 411.2C2397.7 342.7 2402.3 274.3 2411.3 205.8C2420.3 137.3 2433.7 68.7 2440.3 34.3L2447 0L2560 0L2560 34.3C2560 68.7 2560 137.3 2560 205.8C2560 274.3 2560 342.7 2560 411.2C2560 479.7 2560 548.3 2560 617C2560 685.7 2560 754.3 2560 823C2560 891.7 2560 960.3 2560 1028.8C2560 1097.3 2560 1165.7 2560 1234.2C2560 1302.7 2560 1371.3 2560 1405.7L2560 1440Z" fill="#f9e98c"></path><path d="M2500 1440L2493.2 1405.7C2486.3 1371.3 2472.7 1302.7 2472.8 1234.2C2473 1165.7 2487 1097.3 2491.2 1028.8C2495.3 960.3 2489.7 891.7 2488 823C2486.3 754.3 2488.7 685.7 2488.5 617C2488.3 548.3 2485.7 479.7 2485.7 411.2C2485.7 342.7 2488.3 274.3 2487.8 205.8C2487.3 137.3 2483.7 68.7 2481.8 34.3L2480 0L2560 0L2560 34.3C2560 68.7 2560 137.3 2560 205.8C2560 274.3 2560 342.7 2560 411.2C2560 479.7 2560 548.3 2560 617C2560 685.7 2560 754.3 2560 823C2560 891.7 2560 960.3 2560 1028.8C2560 1097.3 2560 1165.7 2560 1234.2C2560 1302.7 2560 1371.3 2560 1405.7L2560 1440Z" fill="#fae869"></path></svg>