<svg id="visual" viewBox="0 0 2560 1440" width="2560" height="1440" xmlns="http://www.w3.org/2000/svg" xmlns:xlink="http://www.w3.org/1999/xlink" version="1.1"><path d="M448 0L438.7 34.3C429.3 68.7 410.7 137.3 419.2 205.8C427.7 274.3 463.3 342.7 472.2 411.2C481 479.7 463 548.3 455.8 617C448.7 685.7 452.3 754.3 440.2 823C428 891.7 400 960.3 399.3 1028.8C398.7 1097.3 425.3 1165.7 453.7 1234.2C482 1302.7 512 1371.3 527 1405.7L542 1440L0 1440L0 1405.7C0 1371.3 0 1302.7 0 1234.2C0 1165.7 0 1097.3 0 1028.8C0 960.3 0 891.7 0 823C0 754.3 0 685.7 0 617C0 548.3 0 479.7 0 411.2C0 342.7 0 274.3 0 205.8C0 137.3 0 68.7 0 34.3L0 0Z" fill="#ececec"></path><path d="M346 0L338.8 34.3C331.7 68.7 317.3 137.3 331.7 205.8C346 274.3 389 342.7 403.3 411.2C417.7 479.7 403.3 548.3 394.8 617C386.3 685.7 383.7 754.3 390.8 823C398 891.7 415 960.3 412 1028.8C409 1097.3 386 1165.7 382.7 1234.2C379.3 1302.7 395.7 1371.3 403.8 1405.7L412 1440L0 1440L0 1405.7C0 1371.3 0 1302.7 0 1234.2C0 1165.7 0 1097.3 0 1028.8C0 960.3 0 891.7 0 823C0 754.3 0 685.7 0 617C0 548.3 0 479.7 0 411.2C0 342.7 0 274.3 0 205.8C0 137.3 0 68.7 0 34.3L0 0Z" fill="#f8d2c1"></path><path d="M277 0L269.5 34.3C262 68.7 247 137.3 259 205.8C271 274.3 310 342.7 324 411.2C338 479.7 327 548.3 313.8 617C300.7 685.7 285.3 754.3 286.8 823C288.3 891.7 306.7 960.3 302.3 1028.8C298 1097.3 271 1165.7 263.5 1234.2C256 1302.7 268 1371.3 274 1405.7L280 1440L0 1440L0 1405.7C0 1371.3 0 1302.7 0 1234.2C0 1165.7 0 1097.3 0 1028.8C0 960.3 0 891.7 0 823C0 754.3 0 685.7 0 617C0 548.3 0 479.7 0 411.2C0 342.7 0 274.3 0 205.8C0 137.3 0 68.7 0 34.3L0 0Z" fill="#feb898"></path><path d="M195 0L197 34.3C199 68.7 203 137.3 201.8 205.8C200.7 274.3 194.3 342.7 203 411.2C211.7 479.7 235.3 548.3 241 617C246.7 685.7 234.3 754.3 219.5 823C204.7 891.7 187.3 960.3 181.7 1028.8C176 1097.3 182 1165.7 184 1234.2C186 1302.7 184 1371.3 183 1405.7L182 1440L0 1440L0 1405.7C0 1371.3 0 1302.7 0 1234.2C0 1165.7 0 1097.3 0 1028.8C0 960.3 0 891.7 0 823C0 754.3 0 685.7 0 617C0 548.3 0 479.7 0 411.2C0 342.7 0 274.3 0 205.8C0 137.3 0 68.7 0 34.3L0 0Z" fill="#ff9d70"></path><path d="M148 0L150.5 34.3C153 68.7 158 137.3 157.8 205.8C157.7 274.3 152.3 342.7 144.8 411.2C137.3 479.7 127.7 548.3 119 617C110.3 685.7 102.7 754.3 109.3 823C116 891.7 137 960.3 141.8 1028.8C146.7 1097.3 135.3 1165.7 127.2 1234.2C119 1302.7 114 1371.3 111.5 1405.7L109 1440L0 1440L0 1405.7C0 1371.3 0 1302.7 0 1234.2C0 1165.7 0 1097.3 0 1028.8C0 960.3 0 891.7 0 823C0 754.3 0 685.7 0 617C0 548.3 0 479.7 0 411.2C0 342.7 0 274.3 0 205.8C0 137.3 0 68.7 0 34.3L0 0Z" fill="#fe8247"></path></svg>