<svg id="visual" viewBox="0 0 2560 1440" width="2560" height="1440" xmlns="http://www.w3.org/2000/svg" xmlns:xlink="http://www.w3.org/1999/xlink" version="1.1"><path d="M0 1318L256 1327L512 1318L768 1358L1024 1356L1280 1349L1536 1362L1792 1325L2048 1319L2304 1359L2560 1352L2560 1441L2304 1441L2048 1441L1792 1441L1536 1441L1280 1441L1024 1441L768 1441L512 1441L256 1441L0 1441Z" fill="#fae869"></path><path d="M0 1354L256 1348L512 1344L768 1358L1024 1370L1280 1334L1536 1364L1792 1362L2048 1358L2304 1355L2560 1366L2560 1441L2304 1441L2048 1441L1792 1441L1536 1441L1280 1441L1024 1441L768 1441L512 1441L256 1441L0 1441Z" fill="#fdd85c"></path><path d="M0 1364L256 1355L512 1381L768 1361L1024 1357L1280 1354L1536 1382L1792 1366L2048 1351L2304 1374L2560 1378L2560 1441L2304 1441L2048 1441L1792 1441L1536 1441L1280 1441L1024 1441L768 1441L512 1441L256 1441L0 1441Z" fill="#fec752"></path><path d="M0 1392L256 1375L512 1366L768 1391L1024 1381L1280 1391L1536 1389L1792 1365L2048 1368L2304 1372L2560 1386L2560 1441L2304 1441L2048 1441L1792 1441L1536 1441L1280 1441L1024 1441L768 1441L512 1441L256 1441L0 1441Z" fill="#ffb64b"></path><path d="M0 1387L256 1404L512 1384L768 1404L1024 1386L1280 1403L1536 1390L1792 1403L2048 1395L2304 1383L2560 1383L2560 1441L2304 1441L2048 1441L1792 1441L1536 1441L1280 1441L1024 1441L768 1441L512 1441L256 1441L0 1441Z" fill="#ffa547"></path><path d="M0 1412L256 1399L512 1414L768 1418L1024 1415L1280 1399L1536 1411L1792 1412L2048 1406L2304 1402L2560 1408L2560 1441L2304 1441L2048 1441L1792 1441L1536 1441L1280 1441L1024 1441L768 1441L512 1441L256 1441L0 1441Z" fill="#ff9446"></path><path d="M0 1429L256 1413L512 1421L768 1424L1024 1421L1280 1424L1536 1426L1792 1414L2048 1426L2304 1427L2560 1414L2560 1441L2304 1441L2048 1441L1792 1441L1536 1441L1280 1441L1024 1441L768 1441L512 1441L256 1441L0 1441Z" fill="#fe8247"></path></svg>