<svg id="visual" viewBox="0 0 2560 1440" width="2560" height="1440" xmlns="http://www.w3.org/2000/svg" xmlns:xlink="http://www.w3.org/1999/xlink" version="1.1"><path d="M556 0L551.2 34.3C546.3 68.7 536.7 137.3 511.3 205.8C486 274.3 445 342.7 434 411.2C423 479.7 442 548.3 443.7 617C445.3 685.7 429.7 754.3 444.5 823C459.3 891.7 504.7 960.3 516.3 1028.8C528 1097.3 506 1165.7 497 1234.2C488 1302.7 492 1371.3 494 1405.7L496 1440L0 1440L0 1405.7C0 1371.3 0 1302.7 0 1234.2C0 1165.7 0 1097.3 0 1028.8C0 960.3 0 891.7 0 823C0 754.3 0 685.7 0 617C0 548.3 0 479.7 0 411.2C0 342.7 0 274.3 0 205.8C0 137.3 0 68.7 0 34.3L0 0Z" fill="#ececec"></path><path d="M393 0L405.5 34.3C418 68.7 443 137.3 456.7 205.8C470.3 274.3 472.7 342.7 450.3 411.2C428 479.7 381 548.3 369.7 617C358.3 685.7 382.7 754.3 384 823C385.3 891.7 363.7 960.3 351.2 1028.8C338.7 1097.3 335.3 1165.7 343.7 1234.2C352 1302.7 372 1371.3 382 1405.7L392 1440L0 1440L0 1405.7C0 1371.3 0 1302.7 0 1234.2C0 1165.7 0 1097.3 0 1028.8C0 960.3 0 891.7 0 823C0 754.3 0 685.7 0 617C0 548.3 0 479.7 0 411.2C0 342.7 0 274.3 0 205.8C0 137.3 0 68.7 0 34.3L0 0Z" fill="#f1ecd7"></path><path d="M321 0L317.2 34.3C313.3 68.7 305.7 137.3 303 205.8C300.3 274.3 302.7 342.7 319.7 411.2C336.7 479.7 368.3 548.3 368 617C367.7 685.7 335.3 754.3 335.7 823C336 891.7 369 960.3 370.2 1028.8C371.3 1097.3 340.7 1165.7 336 1234.2C331.3 1302.7 352.7 1371.3 363.3 1405.7L374 1440L0 1440L0 1405.7C0 1371.3 0 1302.7 0 1234.2C0 1165.7 0 1097.3 0 1028.8C0 960.3 0 891.7 0 823C0 754.3 0 685.7 0 617C0 548.3 0 479.7 0 411.2C0 342.7 0 274.3 0 205.8C0 137.3 0 68.7 0 34.3L0 0Z" fill="#f4ebc3"></path><path d="M302 0L295.8 34.3C289.7 68.7 277.3 137.3 280.8 205.8C284.3 274.3 303.7 342.7 302 411.2C300.3 479.7 277.7 548.3 269.5 617C261.3 685.7 267.7 754.3 263 823C258.3 891.7 242.7 960.3 243 1028.8C243.3 1097.3 259.7 1165.7 276 1234.2C292.3 1302.7 308.7 1371.3 316.8 1405.7L325 1440L0 1440L0 1405.7C0 1371.3 0 1302.7 0 1234.2C0 1165.7 0 1097.3 0 1028.8C0 960.3 0 891.7 0 823C0 754.3 0 685.7 0 617C0 548.3 0 479.7 0 411.2C0 342.7 0 274.3 0 205.8C0 137.3 0 68.7 0 34.3L0 0Z" fill="#f7ebae"></path><path d="M185 0L183.8 34.3C182.7 68.7 180.3 137.3 194.3 205.8C208.3 274.3 238.7 342.7 249.8 411.2C261 479.7 253 548.3 250.2 617C247.3 685.7 249.7 754.3 250.8 823C252 891.7 252 960.3 244.8 1028.8C237.7 1097.3 223.3 1165.7 224 1234.2C224.7 1302.7 240.3 1371.3 248.2 1405.7L256 1440L0 1440L0 1405.7C0 1371.3 0 1302.7 0 1234.2C0 1165.7 0 1097.3 0 1028.8C0 960.3 0 891.7 0 823C0 754.3 0 685.7 0 617C0 548.3 0 479.7 0 411.2C0 342.7 0 274.3 0 205.8C0 137.3 0 68.7 0 34.3L0 0Z" fill="#f9eb99"></path><path d="M185 0L182.8 34.3C180.7 68.7 176.3 137.3 173.8 205.8C171.3 274.3 170.7 342.7 170.8 411.2C171 479.7 172 548.3 167.3 617C162.7 685.7 152.3 754.3 146.2 823C140 891.7 138 960.3 146.5 1028.8C155 1097.3 174 1165.7 182.3 1234.2C190.7 1302.7 188.3 1371.3 187.2 1405.7L186 1440L0 1440L0 1405.7C0 1371.3 0 1302.7 0 1234.2C0 1165.7 0 1097.3 0 1028.8C0 960.3 0 891.7 0 823C0 754.3 0 685.7 0 617C0 548.3 0 479.7 0 411.2C0 342.7 0 274.3 0 205.8C0 137.3 0 68.7 0 34.3L0 0Z" fill="#faea82"></path><path d="M123 0L115.5 34.3C108 68.7 93 137.3 84.5 205.8C76 274.3 74 342.7 74.3 411.2C74.7 479.7 77.3 548.3 80.8 617C84.3 685.7 88.7 754.3 94.2 823C99.7 891.7 106.3 960.3 110.2 1028.8C114 1097.3 115 1165.7 112.8 1234.2C110.7 1302.7 105.3 1371.3 102.7 1405.7L100 1440L0 1440L0 1405.7C0 1371.3 0 1302.7 0 1234.2C0 1165.7 0 1097.3 0 1028.8C0 960.3 0 891.7 0 823C0 754.3 0 685.7 0 617C0 548.3 0 479.7 0 411.2C0 342.7 0 274.3 0 205.8C0 137.3 0 68.7 0 34.3L0 0Z" fill="#fbea6b"></path></svg>