<svg id="visual" viewBox="0 0 2560 1440" width="2560" height="1440" xmlns="http://www.w3.org/2000/svg" xmlns:xlink="http://www.w3.org/1999/xlink" version="1.1"><path d="M240 0L235.8 11.5C231.7 23 223.3 46 223 68.8C222.7 91.7 230.3 114.3 223 137.2C215.7 160 193.3 183 186 205.8C178.7 228.7 186.3 251.3 192.5 274.2C198.7 297 203.3 320 210.2 342.8C217 365.7 226 388.3 232.3 411.2C238.7 434 242.3 457 241.2 480C240 503 234 526 221.5 548.8C209 571.7 190 594.3 183.7 617.2C177.3 640 183.7 663 186.2 685.8C188.7 708.7 187.3 731.3 193.3 754.2C199.3 777 212.7 800 216 822.8C219.3 845.7 212.7 868.3 211.5 891.2C210.3 914 214.7 937 218.2 960C221.7 983 224.3 1006 226.2 1028.8C228 1051.7 229 1074.3 221 1097.2C213 1120 196 1143 187.8 1165.8C179.7 1188.7 180.3 1211.3 182.2 1234.2C184 1257 187 1280 192.3 1302.8C197.7 1325.7 205.3 1348.3 211.8 1371.2C218.3 1394 223.7 1417 226.3 1428.5L229 1440L0 1440L0 1428.5C0 1417 0 1394 0 1371.2C0 1348.3 0 1325.7 0 1302.8C0 1280 0 1257 0 1234.2C0 1211.3 0 1188.7 0 1165.8C0 1143 0 1120 0 1097.2C0 1074.3 0 1051.7 0 1028.8C0 1006 0 983 0 960C0 937 0 914 0 891.2C0 868.3 0 845.7 0 822.8C0 800 0 777 0 754.2C0 731.3 0 708.7 0 685.8C0 663 0 640 0 617.2C0 594.3 0 571.7 0 548.8C0 526 0 503 0 480C0 457 0 434 0 411.2C0 388.3 0 365.7 0 342.8C0 320 0 297 0 274.2C0 251.3 0 228.7 0 205.8C0 183 0 160 0 137.2C0 114.3 0 91.7 0 68.8C0 46 0 23 0 11.5L0 0Z" fill="#fae869"></path><path d="M178 0L180 11.5C182 23 186 46 185.5 68.8C185 91.7 180 114.3 174.2 137.2C168.3 160 161.7 183 165.3 205.8C169 228.7 183 251.3 181.7 274.2C180.3 297 163.7 320 152 342.8C140.3 365.7 133.7 388.3 136 411.2C138.3 434 149.7 457 153.7 480C157.7 503 154.3 526 152.2 548.8C150 571.7 149 594.3 150.8 617.2C152.7 640 157.3 663 165 685.8C172.7 708.7 183.3 731.3 179.7 754.2C176 777 158 800 147.2 822.8C136.3 845.7 132.7 868.3 135.7 891.2C138.7 914 148.3 937 148.3 960C148.3 983 138.7 1006 137.2 1028.8C135.7 1051.7 142.3 1074.3 146.3 1097.2C150.3 1120 151.7 1143 152.2 1165.8C152.7 1188.7 152.3 1211.3 153.7 1234.2C155 1257 158 1280 155.7 1302.8C153.3 1325.7 145.7 1348.3 140 1371.2C134.3 1394 130.7 1417 128.8 1428.5L127 1440L0 1440L0 1428.5C0 1417 0 1394 0 1371.2C0 1348.3 0 1325.7 0 1302.8C0 1280 0 1257 0 1234.2C0 1211.3 0 1188.7 0 1165.8C0 1143 0 1120 0 1097.2C0 1074.3 0 1051.7 0 1028.8C0 1006 0 983 0 960C0 937 0 914 0 891.2C0 868.3 0 845.7 0 822.8C0 800 0 777 0 754.2C0 731.3 0 708.7 0 685.8C0 663 0 640 0 617.2C0 594.3 0 571.7 0 548.8C0 526 0 503 0 480C0 457 0 434 0 411.2C0 388.3 0 365.7 0 342.8C0 320 0 297 0 274.2C0 251.3 0 228.7 0 205.8C0 183 0 160 0 137.2C0 114.3 0 91.7 0 68.8C0 46 0 23 0 11.5L0 0Z" fill="#ffc752"></path><path d="M128 0L128.5 11.5C129 23 130 46 127 68.8C124 91.7 117 114.3 120 137.2C123 160 136 183 142.3 205.8C148.7 228.7 148.3 251.3 140.7 274.2C133 297 118 320 109.3 342.8C100.7 365.7 98.3 388.3 99.5 411.2C100.7 434 105.3 457 108 480C110.7 503 111.3 526 108.8 548.8C106.3 571.7 100.7 594.3 96.8 617.2C93 640 91 663 99.7 685.8C108.3 708.7 127.7 731.3 128.5 754.2C129.3 777 111.7 800 106.2 822.8C100.7 845.7 107.3 868.3 109.5 891.2C111.7 914 109.3 937 108.5 960C107.7 983 108.3 1006 112.7 1028.8C117 1051.7 125 1074.3 128.8 1097.2C132.7 1120 132.3 1143 125.8 1165.8C119.3 1188.7 106.7 1211.3 110.8 1234.2C115 1257 136 1280 147.3 1302.8C158.7 1325.7 160.3 1348.3 151.3 1371.2C142.3 1394 122.7 1417 112.8 1428.5L103 1440L0 1440L0 1428.5C0 1417 0 1394 0 1371.2C0 1348.3 0 1325.7 0 1302.8C0 1280 0 1257 0 1234.2C0 1211.3 0 1188.7 0 1165.8C0 1143 0 1120 0 1097.2C0 1074.3 0 1051.7 0 1028.8C0 1006 0 983 0 960C0 937 0 914 0 891.2C0 868.3 0 845.7 0 822.8C0 800 0 777 0 754.2C0 731.3 0 708.7 0 685.8C0 663 0 640 0 617.2C0 594.3 0 571.7 0 548.8C0 526 0 503 0 480C0 457 0 434 0 411.2C0 388.3 0 365.7 0 342.8C0 320 0 297 0 274.2C0 251.3 0 228.7 0 205.8C0 183 0 160 0 137.2C0 114.3 0 91.7 0 68.8C0 46 0 23 0 11.5L0 0Z" fill="#ffa547"></path><path d="M120 0L117.7 11.5C115.3 23 110.7 46 108.8 68.8C107 91.7 108 114.3 106.5 137.2C105 160 101 183 95.2 205.8C89.3 228.7 81.7 251.3 76.5 274.2C71.3 297 68.7 320 70.7 342.8C72.7 365.7 79.3 388.3 81.2 411.2C83 434 80 457 77.3 480C74.7 503 72.3 526 77.3 548.8C82.3 571.7 94.7 594.3 95.8 617.2C97 640 87 663 83.8 685.8C80.7 708.7 84.3 731.3 90 754.2C95.7 777 103.3 800 108.3 822.8C113.3 845.7 115.7 868.3 114 891.2C112.3 914 106.7 937 96.8 960C87 983 73 1006 74.2 1028.8C75.3 1051.7 91.7 1074.3 92.8 1097.2C94 1120 80 1143 73 1165.8C66 1188.7 66 1211.3 65.3 1234.2C64.7 1257 63.3 1280 65.2 1302.8C67 1325.7 72 1348.3 79.2 1371.2C86.3 1394 95.7 1417 100.3 1428.5L105 1440L0 1440L0 1428.5C0 1417 0 1394 0 1371.2C0 1348.3 0 1325.7 0 1302.8C0 1280 0 1257 0 1234.2C0 1211.3 0 1188.7 0 1165.8C0 1143 0 1120 0 1097.2C0 1074.3 0 1051.7 0 1028.8C0 1006 0 983 0 960C0 937 0 914 0 891.2C0 868.3 0 845.7 0 822.8C0 800 0 777 0 754.2C0 731.3 0 708.7 0 685.8C0 663 0 640 0 617.2C0 594.3 0 571.7 0 548.8C0 526 0 503 0 480C0 457 0 434 0 411.2C0 388.3 0 365.7 0 342.8C0 320 0 297 0 274.2C0 251.3 0 228.7 0 205.8C0 183 0 160 0 137.2C0 114.3 0 91.7 0 68.8C0 46 0 23 0 11.5L0 0Z" fill="#fe8247"></path><path d="M16 0L18.2 11.5C20.3 23 24.7 46 33.7 68.8C42.7 91.7 56.3 114.3 54.8 137.2C53.3 160 36.7 183 27.7 205.8C18.7 228.7 17.3 251.3 23.7 274.2C30 297 44 320 52 342.8C60 365.7 62 388.3 54.2 411.2C46.3 434 28.7 457 27 480C25.3 503 39.7 526 46.8 548.8C54 571.7 54 594.3 53.3 617.2C52.7 640 51.3 663 47.8 685.8C44.3 708.7 38.7 731.3 32 754.2C25.3 777 17.7 800 25 822.8C32.3 845.7 54.7 868.3 65.8 891.2C77 914 77 937 73.3 960C69.7 983 62.3 1006 55 1028.8C47.7 1051.7 40.3 1074.3 43.8 1097.2C47.3 1120 61.7 1143 68.3 1165.8C75 1188.7 74 1211.3 68.8 1234.2C63.7 1257 54.3 1280 53.8 1302.8C53.3 1325.7 61.7 1348.3 59.7 1371.2C57.7 1394 45.3 1417 39.2 1428.5L33 1440L0 1440L0 1428.5C0 1417 0 1394 0 1371.2C0 1348.3 0 1325.7 0 1302.8C0 1280 0 1257 0 1234.2C0 1211.3 0 1188.7 0 1165.8C0 1143 0 1120 0 1097.2C0 1074.3 0 1051.7 0 1028.8C0 1006 0 983 0 960C0 937 0 914 0 891.2C0 868.3 0 845.7 0 822.8C0 800 0 777 0 754.2C0 731.3 0 708.7 0 685.8C0 663 0 640 0 617.2C0 594.3 0 571.7 0 548.8C0 526 0 503 0 480C0 457 0 434 0 411.2C0 388.3 0 365.7 0 342.8C0 320 0 297 0 274.2C0 251.3 0 228.7 0 205.8C0 183 0 160 0 137.2C0 114.3 0 91.7 0 68.8C0 46 0 23 0 11.5L0 0Z" fill="#f75e4f"></path></svg>