<svg id="visual" viewBox="0 0 2560 1440" width="2560" height="1440" xmlns="http://www.w3.org/2000/svg" xmlns:xlink="http://www.w3.org/1999/xlink" version="1.1"><path d="M357 0L362.2 21.8C367.3 43.7 377.7 87.3 399.8 131C422 174.7 456 218.3 450.7 262C445.3 305.7 400.7 349.3 405.5 393C410.3 436.7 464.7 480.3 462.8 524C461 567.7 403 611.3 394.3 654.8C385.7 698.3 426.3 741.7 426.7 785.2C427 828.7 387 872.3 372.8 916C358.7 959.7 370.3 1003.3 404.8 1047C439.3 1090.7 496.7 1134.3 503.3 1178C510 1221.7 466 1265.3 468.2 1309C470.3 1352.7 518.7 1396.3 542.8 1418.2L567 1440L0 1440L0 1418.2C0 1396.3 0 1352.7 0 1309C0 1265.3 0 1221.7 0 1178C0 1134.3 0 1090.7 0 1047C0 1003.3 0 959.7 0 916C0 872.3 0 828.7 0 785.2C0 741.7 0 698.3 0 654.8C0 611.3 0 567.7 0 524C0 480.3 0 436.7 0 393C0 349.3 0 305.7 0 262C0 218.3 0 174.7 0 131C0 87.3 0 43.7 0 21.8L0 0Z" fill="#fae869"></path><path d="M362 0L361.2 21.8C360.3 43.7 358.7 87.3 365.2 131C371.7 174.7 386.3 218.3 395.3 262C404.3 305.7 407.7 349.3 406.2 393C404.7 436.7 398.3 480.3 405.5 524C412.7 567.7 433.3 611.3 427.5 654.8C421.7 698.3 389.3 741.7 365.8 785.2C342.3 828.7 327.7 872.3 329.5 916C331.3 959.7 349.7 1003.3 376.7 1047C403.7 1090.7 439.3 1134.3 439.8 1178C440.3 1221.7 405.7 1265.3 394.2 1309C382.7 1352.7 394.3 1396.3 400.2 1418.2L406 1440L0 1440L0 1418.2C0 1396.3 0 1352.7 0 1309C0 1265.3 0 1221.7 0 1178C0 1134.3 0 1090.7 0 1047C0 1003.3 0 959.7 0 916C0 872.3 0 828.7 0 785.2C0 741.7 0 698.3 0 654.8C0 611.3 0 567.7 0 524C0 480.3 0 436.7 0 393C0 349.3 0 305.7 0 262C0 218.3 0 174.7 0 131C0 87.3 0 43.7 0 21.8L0 0Z" fill="#fec752"></path><path d="M278 0L290 21.8C302 43.7 326 87.3 313 131C300 174.7 250 218.3 240.5 262C231 305.7 262 349.3 257.7 393C253.3 436.7 213.7 480.3 194.7 524C175.7 567.7 177.3 611.3 209.8 654.8C242.3 698.3 305.7 741.7 306.5 785.2C307.3 828.7 245.7 872.3 229.2 916C212.7 959.7 241.3 1003.3 262.7 1047C284 1090.7 298 1134.3 287 1178C276 1221.7 240 1265.3 234.3 1309C228.7 1352.7 253.3 1396.3 265.7 1418.2L278 1440L0 1440L0 1418.2C0 1396.3 0 1352.7 0 1309C0 1265.3 0 1221.7 0 1178C0 1134.3 0 1090.7 0 1047C0 1003.3 0 959.7 0 916C0 872.3 0 828.7 0 785.2C0 741.7 0 698.3 0 654.8C0 611.3 0 567.7 0 524C0 480.3 0 436.7 0 393C0 349.3 0 305.7 0 262C0 218.3 0 174.7 0 131C0 87.3 0 43.7 0 21.8L0 0Z" fill="#ffa547"></path><path d="M235 0L235.2 21.8C235.3 43.7 235.7 87.3 217 131C198.3 174.7 160.7 218.3 141.7 262C122.7 305.7 122.3 349.3 132 393C141.7 436.7 161.3 480.3 165.7 524C170 567.7 159 611.3 141.8 654.8C124.7 698.3 101.3 741.7 110.5 785.2C119.7 828.7 161.3 872.3 175.2 916C189 959.7 175 1003.3 162.3 1047C149.7 1090.7 138.3 1134.3 152.3 1178C166.3 1221.7 205.7 1265.3 217.3 1309C229 1352.7 213 1396.3 205 1418.2L197 1440L0 1440L0 1418.2C0 1396.3 0 1352.7 0 1309C0 1265.3 0 1221.7 0 1178C0 1134.3 0 1090.7 0 1047C0 1003.3 0 959.7 0 916C0 872.3 0 828.7 0 785.2C0 741.7 0 698.3 0 654.8C0 611.3 0 567.7 0 524C0 480.3 0 436.7 0 393C0 349.3 0 305.7 0 262C0 218.3 0 174.7 0 131C0 87.3 0 43.7 0 21.8L0 0Z" fill="#fe8247"></path></svg>